<svg xmlns="http://www.w3.org/2000/svg" xmlns:xlink="http://www.w3.org/1999/xlink" width="40" zoomAndPan="magnify" viewBox="0 0 30 30.000001" height="40" preserveAspectRatio="xMidYMid meet" version="1.0"><defs><g/></defs><g fill="#000000" fill-opacity="1"><g transform="translate(4.943611, 19.741932)"><g><path d="M 19.78125 -16.515625 C 20.644531 -16.628906 21.382812 -16.550781 22 -16.28125 C 22.625 -16.007812 23.070312 -15.566406 23.34375 -14.953125 C 23.613281 -14.347656 23.660156 -13.585938 23.484375 -12.671875 C 23.378906 -12.179688 23.242188 -11.703125 23.078125 -11.234375 C 23.035156 -11.128906 22.984375 -11.035156 22.921875 -10.953125 C 22.859375 -10.867188 22.769531 -10.816406 22.65625 -10.796875 C 22.613281 -10.773438 22.570312 -10.765625 22.53125 -10.765625 C 22.488281 -10.773438 22.453125 -10.800781 22.421875 -10.84375 C 22.410156 -10.875 22.398438 -10.90625 22.390625 -10.9375 C 22.390625 -10.96875 22.394531 -11 22.40625 -11.03125 C 22.601562 -11.5625 22.75 -12.097656 22.84375 -12.640625 C 22.988281 -13.390625 22.960938 -14.035156 22.765625 -14.578125 C 22.566406 -15.128906 22.21875 -15.535156 21.71875 -15.796875 C 21.226562 -16.054688 20.601562 -16.132812 19.84375 -16.03125 C 18.789062 -15.851562 17.726562 -15.445312 16.65625 -14.8125 C 15.582031 -14.175781 14.519531 -13.390625 13.46875 -12.453125 C 12.425781 -11.515625 11.421875 -10.488281 10.453125 -9.375 C 9.484375 -8.257812 8.578125 -7.128906 7.734375 -5.984375 C 6.890625 -4.847656 6.140625 -3.769531 5.484375 -2.75 C 4.828125 -1.726562 4.285156 -0.835938 3.859375 -0.078125 C 3.566406 0.441406 3.296875 0.96875 3.046875 1.5 C 2.796875 2.039062 2.554688 2.585938 2.328125 3.140625 C 2.296875 3.210938 2.265625 3.289062 2.234375 3.375 C 2.160156 3.53125 2.09375 3.6875 2.03125 3.84375 C 1.957031 3.988281 1.882812 4.125 1.8125 4.25 C 1.664062 4.46875 1.457031 4.554688 1.1875 4.515625 C 1.070312 4.492188 0.976562 4.441406 0.90625 4.359375 C 0.84375 4.285156 0.800781 4.191406 0.78125 4.078125 C 0.78125 4.066406 0.78125 4.0625 0.78125 4.0625 C 0.71875 3.769531 0.671875 3.476562 0.640625 3.1875 C 0.585938 1.90625 0.546875 0.65625 0.515625 -0.5625 C 0.492188 -1.84375 0.453125 -3.128906 0.390625 -4.421875 C 0.328125 -5.710938 0.207031 -7.03125 0.03125 -8.375 C 0.0078125 -8.5 0 -8.628906 0 -8.765625 C 0.0078125 -8.890625 0.078125 -8.957031 0.203125 -8.96875 C 0.316406 -8.976562 0.398438 -8.929688 0.453125 -8.828125 C 0.472656 -8.773438 0.488281 -8.71875 0.5 -8.65625 C 0.5 -8.65625 0.5 -8.644531 0.5 -8.625 C 0.738281 -7.0625 0.898438 -5.578125 0.984375 -4.171875 C 1.078125 -2.773438 1.144531 -1.363281 1.1875 0.0625 C 1.226562 0.976562 1.273438 1.925781 1.328125 2.90625 C 1.328125 2.914062 1.328125 2.929688 1.328125 2.953125 C 1.328125 3.003906 1.332031 3.0625 1.34375 3.125 C 1.351562 3.1875 1.390625 3.242188 1.453125 3.296875 C 1.515625 3.242188 1.5625 3.179688 1.59375 3.109375 C 1.632812 3.046875 1.664062 2.976562 1.6875 2.90625 C 1.695312 2.882812 1.707031 2.859375 1.71875 2.828125 C 2.125 1.804688 2.59375 0.816406 3.125 -0.140625 C 3.65625 -1.109375 4.210938 -2.054688 4.796875 -2.984375 C 5.222656 -3.660156 5.75 -4.4375 6.375 -5.3125 C 7.007812 -6.195312 7.71875 -7.125 8.5 -8.09375 C 9.289062 -9.0625 10.132812 -10.015625 11.03125 -10.953125 C 11.9375 -11.898438 12.875 -12.765625 13.84375 -13.546875 C 14.820312 -14.335938 15.8125 -14.992188 16.8125 -15.515625 C 17.8125 -16.046875 18.800781 -16.378906 19.78125 -16.515625 Z M 19.78125 -16.515625 "/></g></g></g><g fill="#000000" fill-opacity="1"><g transform="translate(12.331097, 19.741932)"><g><path d="M 3.421875 -2.40625 C 3.492188 -2.363281 3.5 -2.257812 3.4375 -2.09375 C 3.351562 -1.976562 3.257812 -1.867188 3.15625 -1.765625 C 3.050781 -1.660156 2.9375 -1.566406 2.8125 -1.484375 C 2.800781 -1.484375 2.796875 -1.476562 2.796875 -1.46875 C 2.710938 -1.414062 2.625 -1.367188 2.53125 -1.328125 C 1.78125 -1.054688 1.398438 -1.210938 1.390625 -1.796875 C 1.078125 -1.535156 0.867188 -1.375 0.765625 -1.3125 C 0.515625 -1.164062 0.25 -1.101562 -0.03125 -1.125 C -0.25 -1.132812 -0.394531 -1.195312 -0.46875 -1.3125 C -0.550781 -1.4375 -0.546875 -1.597656 -0.453125 -1.796875 C -0.316406 -2.109375 -0.117188 -2.390625 0.140625 -2.640625 C 0.429688 -2.921875 0.765625 -3.144531 1.140625 -3.3125 C 1.328125 -3.40625 1.53125 -3.441406 1.75 -3.421875 C 1.957031 -3.410156 2.085938 -3.289062 2.140625 -3.0625 C 2.148438 -2.988281 2.128906 -2.925781 2.078125 -2.875 C 2.015625 -2.8125 1.9375 -2.796875 1.84375 -2.828125 C 1.832031 -2.828125 1.820312 -2.828125 1.8125 -2.828125 C 1.800781 -2.835938 1.796875 -2.847656 1.796875 -2.859375 C 1.703125 -2.984375 1.609375 -3.035156 1.515625 -3.015625 C 1.421875 -2.992188 1.320312 -2.953125 1.21875 -2.890625 C 0.726562 -2.597656 0.367188 -2.203125 0.140625 -1.703125 C 0.128906 -1.679688 0.117188 -1.65625 0.109375 -1.625 C 0.109375 -1.601562 0.117188 -1.582031 0.140625 -1.5625 C 0.191406 -1.539062 0.253906 -1.539062 0.328125 -1.5625 C 0.398438 -1.59375 0.46875 -1.632812 0.53125 -1.6875 C 0.601562 -1.738281 0.660156 -1.785156 0.703125 -1.828125 C 0.710938 -1.835938 0.71875 -1.84375 0.71875 -1.84375 C 0.945312 -2.03125 1.171875 -2.222656 1.390625 -2.421875 C 1.492188 -2.523438 1.613281 -2.585938 1.75 -2.609375 C 1.957031 -2.609375 2.046875 -2.515625 2.015625 -2.328125 C 1.992188 -2.253906 1.972656 -2.179688 1.953125 -2.109375 C 1.867188 -1.816406 1.863281 -1.644531 1.9375 -1.59375 C 2.019531 -1.539062 2.140625 -1.539062 2.296875 -1.59375 C 2.453125 -1.644531 2.609375 -1.742188 2.765625 -1.890625 C 2.921875 -2.035156 3.050781 -2.164062 3.15625 -2.28125 C 3.257812 -2.40625 3.347656 -2.445312 3.421875 -2.40625 Z M 3.421875 -2.40625 "/></g></g></g><g fill="#000000" fill-opacity="1"><g transform="translate(15.462754, 19.741932)"><g><path d="M 3.421875 -2.40625 C 3.492188 -2.363281 3.5 -2.257812 3.4375 -2.09375 C 3.351562 -1.976562 3.257812 -1.867188 3.15625 -1.765625 C 3.050781 -1.660156 2.9375 -1.566406 2.8125 -1.484375 C 2.800781 -1.484375 2.796875 -1.476562 2.796875 -1.46875 C 2.710938 -1.414062 2.625 -1.367188 2.53125 -1.328125 C 1.78125 -1.054688 1.398438 -1.210938 1.390625 -1.796875 C 1.078125 -1.535156 0.867188 -1.375 0.765625 -1.3125 C 0.515625 -1.164062 0.25 -1.101562 -0.03125 -1.125 C -0.25 -1.132812 -0.394531 -1.195312 -0.46875 -1.3125 C -0.550781 -1.4375 -0.546875 -1.597656 -0.453125 -1.796875 C -0.316406 -2.109375 -0.117188 -2.390625 0.140625 -2.640625 C 0.429688 -2.921875 0.765625 -3.144531 1.140625 -3.3125 C 1.328125 -3.40625 1.53125 -3.441406 1.75 -3.421875 C 1.957031 -3.410156 2.085938 -3.289062 2.140625 -3.0625 C 2.148438 -2.988281 2.128906 -2.925781 2.078125 -2.875 C 2.015625 -2.8125 1.9375 -2.796875 1.84375 -2.828125 C 1.832031 -2.828125 1.820312 -2.828125 1.8125 -2.828125 C 1.800781 -2.835938 1.796875 -2.847656 1.796875 -2.859375 C 1.703125 -2.984375 1.609375 -3.035156 1.515625 -3.015625 C 1.421875 -2.992188 1.320312 -2.953125 1.21875 -2.890625 C 0.726562 -2.597656 0.367188 -2.203125 0.140625 -1.703125 C 0.128906 -1.679688 0.117188 -1.65625 0.109375 -1.625 C 0.109375 -1.601562 0.117188 -1.582031 0.140625 -1.5625 C 0.191406 -1.539062 0.253906 -1.539062 0.328125 -1.5625 C 0.398438 -1.59375 0.46875 -1.632812 0.53125 -1.6875 C 0.601562 -1.738281 0.660156 -1.785156 0.703125 -1.828125 C 0.710938 -1.835938 0.71875 -1.84375 0.71875 -1.84375 C 0.945312 -2.03125 1.171875 -2.222656 1.390625 -2.421875 C 1.492188 -2.523438 1.613281 -2.585938 1.75 -2.609375 C 1.957031 -2.609375 2.046875 -2.515625 2.015625 -2.328125 C 1.992188 -2.253906 1.972656 -2.179688 1.953125 -2.109375 C 1.867188 -1.816406 1.863281 -1.644531 1.9375 -1.59375 C 2.019531 -1.539062 2.140625 -1.539062 2.296875 -1.59375 C 2.453125 -1.644531 2.609375 -1.742188 2.765625 -1.890625 C 2.921875 -2.035156 3.050781 -2.164062 3.15625 -2.28125 C 3.257812 -2.40625 3.347656 -2.445312 3.421875 -2.40625 Z M 3.421875 -2.40625 "/></g></g></g><g fill="#000000" fill-opacity="1"><g transform="translate(18.594411, 19.741932)"><g><path d="M 3.421875 -2.40625 C 3.492188 -2.363281 3.5 -2.257812 3.4375 -2.09375 C 3.351562 -1.976562 3.257812 -1.867188 3.15625 -1.765625 C 3.050781 -1.660156 2.9375 -1.566406 2.8125 -1.484375 C 2.800781 -1.484375 2.796875 -1.476562 2.796875 -1.46875 C 2.710938 -1.414062 2.625 -1.367188 2.53125 -1.328125 C 1.78125 -1.054688 1.398438 -1.210938 1.390625 -1.796875 C 1.078125 -1.535156 0.867188 -1.375 0.765625 -1.3125 C 0.515625 -1.164062 0.25 -1.101562 -0.03125 -1.125 C -0.25 -1.132812 -0.394531 -1.195312 -0.46875 -1.3125 C -0.550781 -1.4375 -0.546875 -1.597656 -0.453125 -1.796875 C -0.316406 -2.109375 -0.117188 -2.390625 0.140625 -2.640625 C 0.429688 -2.921875 0.765625 -3.144531 1.140625 -3.3125 C 1.328125 -3.40625 1.53125 -3.441406 1.75 -3.421875 C 1.957031 -3.410156 2.085938 -3.289062 2.140625 -3.0625 C 2.148438 -2.988281 2.128906 -2.925781 2.078125 -2.875 C 2.015625 -2.8125 1.9375 -2.796875 1.84375 -2.828125 C 1.832031 -2.828125 1.820312 -2.828125 1.8125 -2.828125 C 1.800781 -2.835938 1.796875 -2.847656 1.796875 -2.859375 C 1.703125 -2.984375 1.609375 -3.035156 1.515625 -3.015625 C 1.421875 -2.992188 1.320312 -2.953125 1.21875 -2.890625 C 0.726562 -2.597656 0.367188 -2.203125 0.140625 -1.703125 C 0.128906 -1.679688 0.117188 -1.65625 0.109375 -1.625 C 0.109375 -1.601562 0.117188 -1.582031 0.140625 -1.5625 C 0.191406 -1.539062 0.253906 -1.539062 0.328125 -1.5625 C 0.398438 -1.59375 0.46875 -1.632812 0.53125 -1.6875 C 0.601562 -1.738281 0.660156 -1.785156 0.703125 -1.828125 C 0.710938 -1.835938 0.71875 -1.84375 0.71875 -1.84375 C 0.945312 -2.03125 1.171875 -2.222656 1.390625 -2.421875 C 1.492188 -2.523438 1.613281 -2.585938 1.75 -2.609375 C 1.957031 -2.609375 2.046875 -2.515625 2.015625 -2.328125 C 1.992188 -2.253906 1.972656 -2.179688 1.953125 -2.109375 C 1.867188 -1.816406 1.863281 -1.644531 1.9375 -1.59375 C 2.019531 -1.539062 2.140625 -1.539062 2.296875 -1.59375 C 2.453125 -1.644531 2.609375 -1.742188 2.765625 -1.890625 C 2.921875 -2.035156 3.050781 -2.164062 3.15625 -2.28125 C 3.257812 -2.40625 3.347656 -2.445312 3.421875 -2.40625 Z M 3.421875 -2.40625 "/></g></g></g><g fill="#000000" fill-opacity="1"><g transform="translate(21.726069, 19.741932)"><g><path d="M 3.65625 -2.40625 C 3.6875 -2.375 3.691406 -2.335938 3.671875 -2.296875 C 3.660156 -2.265625 3.640625 -2.234375 3.609375 -2.203125 C 3.390625 -2.015625 3.144531 -1.863281 2.875 -1.75 C 2.414062 -1.53125 1.9375 -1.394531 1.4375 -1.34375 C 1.039062 -1.300781 0.660156 -1.363281 0.296875 -1.53125 C 0.171875 -1.582031 0.078125 -1.550781 0.015625 -1.4375 C -0.078125 -1.257812 -0.171875 -1.082031 -0.265625 -0.90625 C -0.316406 -0.8125 -0.367188 -0.710938 -0.421875 -0.609375 C -0.429688 -0.597656 -0.4375 -0.582031 -0.4375 -0.5625 C -0.46875 -0.53125 -0.488281 -0.5 -0.5 -0.46875 C -0.519531 -0.4375 -0.554688 -0.414062 -0.609375 -0.40625 C -0.640625 -0.394531 -0.664062 -0.390625 -0.6875 -0.390625 C -0.71875 -0.390625 -0.742188 -0.394531 -0.765625 -0.40625 C -0.785156 -0.425781 -0.800781 -0.445312 -0.8125 -0.46875 C -0.832031 -0.5 -0.84375 -0.53125 -0.84375 -0.5625 C -0.820312 -0.644531 -0.789062 -0.734375 -0.75 -0.828125 C -0.65625 -1.023438 -0.566406 -1.222656 -0.484375 -1.421875 C -0.273438 -1.921875 -0.0507812 -2.410156 0.1875 -2.890625 C 0.84375 -4.234375 1.460938 -5.585938 2.046875 -6.953125 C 2.097656 -7.078125 2.164062 -7.191406 2.25 -7.296875 C 2.3125 -7.378906 2.394531 -7.398438 2.5 -7.359375 C 2.613281 -7.316406 2.648438 -7.238281 2.609375 -7.125 C 2.535156 -6.882812 2.453125 -6.648438 2.359375 -6.421875 C 1.921875 -5.335938 1.441406 -4.273438 0.921875 -3.234375 C 0.816406 -3.015625 0.78125 -2.875 0.8125 -2.8125 C 0.84375 -2.757812 0.914062 -2.753906 1.03125 -2.796875 C 1.144531 -2.847656 1.28125 -2.914062 1.4375 -3 C 1.539062 -3.0625 1.648438 -3.117188 1.765625 -3.171875 C 1.785156 -3.179688 1.804688 -3.191406 1.828125 -3.203125 C 1.960938 -3.273438 2.101562 -3.3125 2.25 -3.3125 C 2.3125 -3.3125 2.359375 -3.285156 2.390625 -3.234375 C 2.398438 -3.203125 2.398438 -3.171875 2.390625 -3.140625 C 2.378906 -3.117188 2.363281 -3.101562 2.34375 -3.09375 C 2.101562 -2.957031 1.863281 -2.828125 1.625 -2.703125 C 1.5 -2.640625 1.375 -2.578125 1.25 -2.515625 C 1.132812 -2.460938 1.015625 -2.40625 0.890625 -2.34375 C 0.804688 -2.289062 0.734375 -2.234375 0.671875 -2.171875 C 0.503906 -2.003906 0.519531 -1.867188 0.71875 -1.765625 C 0.875 -1.691406 1.03125 -1.648438 1.1875 -1.640625 C 1.351562 -1.640625 1.519531 -1.660156 1.6875 -1.703125 C 2.1875 -1.816406 2.65625 -2 3.09375 -2.25 C 3.125 -2.269531 3.15625 -2.285156 3.1875 -2.296875 C 3.269531 -2.359375 3.359375 -2.410156 3.453125 -2.453125 C 3.484375 -2.460938 3.519531 -2.460938 3.5625 -2.453125 C 3.601562 -2.453125 3.632812 -2.4375 3.65625 -2.40625 Z M 3.65625 -2.40625 "/></g></g></g></svg>