<?xml version="1.0" encoding="utf-8"?>
<!-- Generator: Adobe Illustrator 25.3.0, SVG Export Plug-In . SVG Version: 6.00 Build 0)  -->
<svg version="1.1" id="Layer_1" xmlns="http://www.w3.org/2000/svg" xmlns:xlink="http://www.w3.org/1999/xlink" x="0px" y="0px"
	 viewBox="0 0 416 77" style="enable-background:new 0 0 416 77;" xml:space="preserve">
<style type="text/css">
	.st0{fill:#242424;}
	.st1{fill:#3F51B5;}
</style>
<g>
	<g>
		<path class="st0" d="M120.8,44.4H93.8c0.8,6,5.9,10.6,11.8,10.6c3.7,0,7.1-1.7,9.4-4.8l0.4-0.5l2.7,2l-0.4,0.5
			c-2.9,3.9-7.3,6.1-12.1,6.1c-8.4,0-15.3-7-15.3-15.7S97.2,27,105.6,27c8.4,0,15.3,7.1,15.3,15.7V44.4z M117.4,41
			c-0.8-6-5.8-10.6-11.8-10.6c-5.9,0-11,4.6-11.8,10.6H117.4z"/>
		<path class="st0" d="M147.1,49.7c0,4.8-5,8.7-11.1,8.7c-3.8,0-7.2-1.5-9.3-3.9c-0.5-0.6-0.8-1.1-1.1-1.8l-0.3-0.6l3-1.4l0.3,0.6
			c0.2,0.4,0.4,0.7,0.7,1c1.4,1.7,4,2.7,6.7,2.7c4.3,0,7.7-2.4,7.7-5.3c0-3.3-2.5-4.2-7.9-5.3c-4.7-1-10.5-2.2-10.5-8.5v-0.2
			c0-4.8,5-8.7,11.1-8.7c4,0,7.7,1.7,9.7,4.4l0.4,0.5l-2.7,2l-0.4-0.5c-1.3-1.8-4-3-6.9-3c-4.3,0-7.7,2.4-7.7,5.3v0.2
			c0,3.2,2.5,4.1,7.8,5.2C141.3,42.1,147.1,43.3,147.1,49.7z"/>
		<path class="st0" d="M173.7,49.7c0,4.8-5,8.7-11.1,8.7c-3.8,0-7.2-1.5-9.3-3.9c-0.5-0.6-0.8-1.1-1.1-1.8l-0.3-0.6l3-1.4l0.3,0.6
			c0.2,0.4,0.4,0.7,0.7,1c1.4,1.7,4,2.7,6.7,2.7c4.3,0,7.7-2.4,7.7-5.3c0-3.3-2.5-4.2-7.9-5.3c-4.7-1-10.5-2.2-10.5-8.5v-0.2
			c0-4.8,5-8.7,11.1-8.7c4,0,7.7,1.7,9.7,4.4l0.4,0.5l-2.7,2l-0.4-0.5c-1.3-1.8-4-3-6.9-3c-4.3,0-7.7,2.4-7.7,5.3v0.2
			c0,3.2,2.5,4.1,7.8,5.2C167.8,42.1,173.7,43.3,173.7,49.7z"/>
		<path class="st0" d="M208.9,44.4h-27.1c0.8,6,5.9,10.6,11.8,10.6c3.7,0,7.1-1.7,9.4-4.8l0.4-0.5l2.7,2l-0.4,0.5
			c-2.9,3.9-7.3,6.1-12.1,6.1c-8.4,0-15.3-7-15.3-15.7S185.2,27,193.6,27c8.4,0,15.3,7.1,15.3,15.7V44.4z M205.4,41
			c-0.8-6-5.8-10.6-11.8-10.6c-5.9,0-11,4.6-11.8,10.6H205.4z"/>
		<path class="st0" d="M238.7,39.3v18.8h-3.4V39.3c0-4.9-3.9-8.8-8.6-8.8c-6.7,0-8.2,7.3-8.5,10.4l0,0.2v17h-3.4V27.5h3.4v3.7
			c1.8-2.3,4.5-4.2,8.5-4.2C233.3,27.1,238.7,32.5,238.7,39.3z"/>
		<path class="st0" d="M263.2,57.7l-0.7,0.2c-0.9,0.2-1.9,0.4-2.8,0.4h0c-2.5,0-5-0.8-7-2.4c-2.9-2.2-4.5-5.6-4.5-9.3v-13H243v-3.4
			h5.3v-6.4h3.4v6.4h5.1v3.4h-5.1v13c0,2.6,1.2,5,3.2,6.6c1.4,1.1,3.1,1.7,4.9,1.7c0.7,0,1.3-0.1,2-0.2l0.7-0.2L263.2,57.7z"/>
		<path class="st0" d="M267.9,58V27.5h3.4V58H267.9z M268.1,23.2c0-0.8,0.7-1.5,1.5-1.5c0.8,0,1.5,0.7,1.5,1.5
			c0,0.8-0.7,1.5-1.5,1.5C268.8,24.7,268.1,24,268.1,23.2z"/>
		<path class="st0" d="M300.2,38.5V58h-3.4v-3.7c-2.8,2.6-6.5,4.2-10.5,4.2c-5,0-9-4-9-9c0-5,4-9,9-9h10.5v-2c0-2.3-1-4.5-2.7-6
			c-1.5-1.3-3.3-2-5.3-2c-0.3,0-0.7,0-1,0.1l-7.7,1l-0.4-3.4l7.7-1c0.5-0.1,0.9-0.1,1.4-0.1c2.8,0,5.4,1,7.5,2.8
			C298.8,32.1,300.2,35.2,300.2,38.5z M296.8,43.8h-10.5c-3.1,0-5.6,2.5-5.6,5.6c0,3.1,2.5,5.6,5.6,5.6c4,0,7.7-2,9.9-5.3l0.5-0.8
			V43.8z"/>
		<path class="st1" d="M305.7,58.1v-4.4h4.4v4.4H305.7z"/>
		<g>
			<path class="st1" d="M339.8,31.3c-2.8-3-6.6-4.8-10.6-4.8c-8.2,0-14.9,7.3-14.9,16.2c0,8.9,6.7,16.2,14.9,16.2
				c4,0,7.8-1.7,10.6-4.8v4.3h4.4V18h-4.4V31.3z M340.3,42.7l-0.5,0.1c0,6.5-4.8,11.8-10.6,11.8c-5.8,0-10.6-5.3-10.6-11.8
				c0-6.5,4.7-11.8,10.6-11.8c5.8,0,10.6,5.3,10.6,11.8L340.3,42.7L340.3,42.7z M343.6,42.7L343.6,42.7L343.6,42.7L343.6,42.7z"/>
			<path class="st1" d="M365.1,26.5c-8.7,0-15.8,7.3-15.8,16.2c0,8.9,7.1,16.2,15.8,16.2c4.9,0,9.5-2.3,12.5-6.3l0.7-0.9l-3.5-2.6
				l-0.7,0.9c-2.2,2.9-5.5,4.6-9,4.6c-5.5,0-10.2-4.1-11.2-9.6h27v-2.2C380.8,33.8,373.8,26.5,365.1,26.5z M353.9,40.5
				c1-5.5,5.7-9.6,11.2-9.6c5.5,0,10.2,4.1,11.2,9.6H353.9z"/>
			<polygon class="st1" points="410.4,27 398.1,52.4 385.8,27 381,27 396.3,58.6 400,58.6 415.3,27 			"/>
		</g>
	</g>
	<g>
		<path class="st1" d="M62.1,25.8c0,5.2,0,21.3,0,26.4c0,2.1-0.5,4-1.6,5.7c-0.9,1.4-2.2,2.5-3.7,3.2c-1.6,0.8-3.2,1-4.9,1
			c-5,0-9.9,0-15.1,0c0.6-0.6,1.1-1.1,1.6-1.7c1.1-1.1,12.1-12.3,13.4-13.5c0.9-0.8,1.5-1.8,1.3-3.1c-0.4-2.3-2.9-3.2-4.6-1.9
			c-0.9,0.7-1.6,1.5-2.4,2.3c-0.9,0.9-12.8,12.9-13.8,13.8c-0.7,0.7-1.4,1.5-2.2,2.1c-0.7,0.5-1.4,1-2.2,1.3
			c-1.8,0.8-3.7,0.9-5.6,0.5c-2.4-0.5-4.3-1.8-5.8-3.8c-1.3-1.8-1.9-3.8-1.9-6c0-8.4,0-20,0-28.5c0-5.7,5.5-9.2,9.2-9.2
			c1.8,0,13.3,0,16.2,0c-2.5,2.5-4.2,4.4-5.3,5.4C32.7,22,25.9,29,24.4,30.5c-1.1,1.1-1.1,3.2,0.1,4.2c1.5,1.2,2.9,1,4.1-0.1
			c2.2-2.2,4.4-4.5,6.6-6.7c2.1-2.1,4.2-4.1,6.2-6.2c1.4-1.4,2.8-2.9,4.2-4.3c2.4-2.2,4.7-2.7,6.9-2.4
			C56.1,15.3,62.1,19.8,62.1,25.8z M23.4,50.3c0.2,0.5,0.3,1,0.6,1.5c0.8,1.4,2.8,1.9,4.1,0.9c0.4-0.3,22.5-22.5,23.7-23.6
			c1.2-1.1,1.9-2.7,0.8-4.3c-1-1.5-3.1-1.7-4.4-0.5c-1.4,1.4-21.7,21.7-23.4,23.4C24.1,48.5,23.5,49.2,23.4,50.3z"/>
		<path class="st1" d="M71.4,0H5.3c-3,0-5.4,2.4-5.4,5.4v66.1c0,3,2.4,5.4,5.4,5.4h66.1c3,0,5.4-2.4,5.4-5.4V5.4
			C76.8,2.4,74.4,0,71.4,0z M71.4,71.5l-66.1,0l0-66.1l66.1,0L71.4,71.5z"/>
	</g>
</g>
</svg>
