<?xml version="1.0" encoding="UTF-8"?>
<svg version="1.1" xmlns="http://www.w3.org/2000/svg" width="502" height="497">
<path d="M0 0 C10.24902051 6.98796853 15.65065863 18.3217655 19 30 C19.2578125 33.265625 19.2578125 33.265625 19 36 C18.01 36.99 18.01 36.99 17 38 C16.01 38 15.02 38 14 38 C13.78907715 37.46632812 13.5781543 36.93265625 13.36083984 36.3828125 C12.37793085 33.91674023 11.37662248 31.45852791 10.375 29 C10.04371094 28.16082031 9.71242188 27.32164063 9.37109375 26.45703125 C6.44034038 19.32368813 2.78695075 11.97431769 -4.1875 8.0625 C-4.84105469 7.68222656 -5.49460937 7.30195312 -6.16796875 6.91015625 C-10.95387523 4.53250975 -15.31883756 4.2194084 -20.46875 5.71875 C-34.70873905 11.03730013 -42.01284807 23.84864503 -48.3125 37.03125 C-72.95079738 93.2157786 -70.64042242 163.0335916 -63.5 222.8125 C-63.38164795 223.80967041 -63.2632959 224.80684082 -63.14135742 225.83422852 C-62.96310425 227.19439087 -62.96310425 227.19439087 -62.78125 228.58203125 C-62.6275293 229.76116089 -62.6275293 229.76116089 -62.47070312 230.96411133 C-62.05781832 233.29570599 -62.05781832 233.29570599 -60 236 C-60.0103125 237.00160156 -60.020625 238.00320313 -60.03125 239.03515625 C-59.9842859 244.99372604 -58.29168937 250.43977888 -56.77734375 256.17382812 C-53.46015664 269.26250069 -53.46015664 269.26250069 -56.125 274 C-58.91294535 275.48690419 -60.87469885 275.32938223 -64 275 C-66.4921875 273.1640625 -66.4921875 273.1640625 -68.875 270.625 C-69.73996094 269.70460938 -70.60492188 268.78421875 -71.49609375 267.8359375 C-75.16756931 263.67760481 -78.61845503 259.39600846 -82 255 C-83.72439141 252.78791604 -85.45575756 250.58133164 -87.1875 248.375 C-87.64761475 247.78750977 -88.10772949 247.20001953 -88.58178711 246.59472656 C-92.71212355 241.33395999 -96.92977933 236.14683883 -101.16064453 230.96679688 C-104.6840075 226.64480497 -108.14028632 222.27729008 -111.5625 217.875 C-118.37050323 209.16223052 -125.43394168 200.68327846 -133.09375 192.703125 C-133.7837207 191.98237793 -134.47369141 191.26163086 -135.18457031 190.51904297 C-136.5390224 189.11303845 -137.90270047 187.71585116 -139.27636719 186.32861328 C-139.89157227 185.69165527 -140.50677734 185.05469727 -141.140625 184.3984375 C-141.69266602 183.83817871 -142.24470703 183.27791992 -142.81347656 182.70068359 C-144 181 -144 181 -144 177 C-141.8359375 176.19140625 -141.8359375 176.19140625 -139 176 C-136.3515625 178.02734375 -136.3515625 178.02734375 -133.625 180.9375 C-133.13950684 181.44821045 -132.65401367 181.9589209 -132.15380859 182.48510742 C-129.01137628 185.8153741 -125.9701283 189.23456103 -123 192.71875 C-120.83115777 195.19258567 -118.59188305 197.58866129 -116.33959961 199.98632812 C-111.16559514 205.49701492 -106.16368823 211.06698074 -101.43359375 216.96875 C-98.96592838 220.04243913 -96.45879829 223.08010407 -93.94433594 226.11547852 C-88.34817851 232.87337179 -82.82590863 239.67703302 -77.46337891 246.62231445 C-75.43657347 249.23557797 -73.42313485 251.74261704 -71 254 C-69.01046051 249.16328887 -68.9688943 245.85342367 -69.74609375 240.7109375 C-69.94989109 239.28625202 -70.15282367 237.86144263 -70.35498047 236.43652344 C-70.46299988 235.70477905 -70.57101929 234.97303467 -70.68231201 234.21911621 C-71.19685364 230.62493664 -71.61578894 227.02038641 -72.03515625 223.4140625 C-72.11970062 222.69313416 -72.204245 221.97220581 -72.29135132 221.22943115 C-72.46318676 219.76240416 -72.63437886 218.29530167 -72.80493164 216.828125 C-72.97625523 215.36269934 -73.14974832 213.89752564 -73.32543945 212.43261719 C-75.41351744 195.00542119 -76.21109282 177.67237611 -76.1875 160.125 C-76.18689575 159.28205383 -76.1862915 158.43910767 -76.18566895 157.57061768 C-76.09046416 108.19764891 -73.07743978 46.31400583 -37.5625 8.125 C-27.48787941 -1.45760424 -12.98243701 -7.32879509 0 0 Z M-68 248 C-67 252 -67 252 -67 252 Z M-67 252 C-66 256 -66 256 -66 256 Z M-66 257 C-66.33 258.32 -66.66 259.64 -67 261 C-65.515 261.99 -65.515 261.99 -64 263 C-64.33 261.02 -64.66 259.04 -65 257 C-65.33 257 -65.66 257 -66 257 Z " fill="#2F2F29" transform="translate(308,78)"/>
<path d="M0 0 C0.41378906 0.87785156 0.82757813 1.75570312 1.25390625 2.66015625 C2.92530101 5.85711937 4.76531552 8.56487983 6.9375 11.4375 C9.14198897 14.41155603 11.28998754 17.31032496 13.0625 20.5625 C15.27538543 24.48858706 17.80417571 28.09582785 20.4140625 31.765625 C24.01335503 36.83654946 24.01335503 36.83654946 23.83544922 39.01391602 C22.81228657 41.44624451 21.78350243 42.2671146 19.6328125 43.77734375 C18.92133057 44.28434814 18.20984863 44.79135254 17.47680664 45.3137207 C16.70071045 45.84956787 15.92461426 46.38541504 15.125 46.9375 C14.32505615 47.50235107 13.5251123 48.06720215 12.70092773 48.64916992 C6.06568139 53.31559621 -0.62990982 57.89934988 -7.34936523 62.44360352 C-12.67640626 66.05188535 -17.82799715 69.8058276 -22.87109375 73.8046875 C-25 75 -25 75 -26.97583008 74.76171875 C-30.4866509 73.44055593 -32.18441167 70.10810478 -34.25 67.125 C-34.73235107 66.44679199 -35.21470215 65.76858398 -35.71166992 65.06982422 C-36.68920693 63.69520841 -37.66279725 62.31777703 -38.63232422 60.9375 C-40.48951912 58.30652915 -42.40156336 55.71709903 -44.3125 53.125 C-45.54489715 51.41899568 -46.77421883 49.71076416 -48 48 C-48.61359375 47.15179688 -49.2271875 46.30359375 -49.859375 45.4296875 C-50.70242188 44.22699219 -50.70242188 44.22699219 -51.5625 43 C-52.30693359 41.948125 -52.30693359 41.948125 -53.06640625 40.875 C-54 39 -54 39 -53 36 C-50.65745862 34.23564314 -48.32274079 32.6055074 -45.875 31 C-44.40099452 30.01112276 -42.92836839 29.02018681 -41.45703125 28.02734375 C-40.7088916 27.52315918 -39.96075195 27.01897461 -39.18994141 26.49951172 C-35.92384159 24.26312543 -32.74066154 21.92147261 -29.5625 19.5625 C-24.00683456 15.45059129 -18.39938457 11.41975461 -12.75 7.4375 C-12.02240479 6.92453369 -11.29480957 6.41156738 -10.54516602 5.88305664 C-2.18086063 0 -2.18086063 0 0 0 Z " fill="#C99611" transform="translate(337,247)"/>
<path d="M0 0 C1.91162109 0.27905273 1.91162109 0.27905273 4 1 C5.09309514 3.73273785 5.90122508 6.23168296 6.625 9.0625 C6.93050781 10.17141602 6.93050781 10.17141602 7.2421875 11.30273438 C8.05531444 14.28159364 8.83069258 17.2634336 9.52246094 20.27294922 C10.43623185 24.5561622 10.43623185 24.5561622 13 28 C13.4140625 30.1640625 13.4140625 30.1640625 13.625 32.625 C13.73714844 33.85089844 13.73714844 33.85089844 13.8515625 35.1015625 C13.90054688 35.72804687 13.94953125 36.35453125 14 37 C17.33283508 36.34749649 17.33283508 36.34749649 19.75 33.9375 C20.1625 33.298125 20.575 32.65875 21 32 C22.98 32.495 22.98 32.495 25 33 C24.79503906 33.60328125 24.59007812 34.2065625 24.37890625 34.828125 C24.10949219 35.62734375 23.84007812 36.4265625 23.5625 37.25 C23.29566406 38.03890625 23.02882813 38.8278125 22.75390625 39.640625 C21.10741373 44.77979557 21.10741373 44.77979557 22 50 C25.73684636 48.54230778 27.05298684 46.7673902 29 43.3125 C29.50789063 42.42433594 30.01578125 41.53617188 30.5390625 40.62109375 C31.02117187 39.75613281 31.50328125 38.89117187 32 38 C32.79083838 36.62452344 33.582374 35.24944721 34.375 33.875 C34.91125 32.92625 35.4475 31.9775 36 31 C36.99 31 37.98 31 39 31 C40.3939399 35.1818197 39.10857638 37.27639597 37.4296875 41.23046875 C33.60903165 48.63168459 28.68269082 54.61961604 21 58 C20.34 58 19.68 58 19 58 C19.020625 59.134375 19.04125 60.26875 19.0625 61.4375 C19 65 19 65 18 66 C17.95919217 67.99958364 17.95745644 70.00045254 18 72 C16.68 72.33 15.36 72.66 14 73 C13.01 70.36 12.02 67.72 11 65 C10.443125 65.928125 9.88625 66.85625 9.3125 67.8125 C7.01390009 70.98084041 5.56974185 72.48285971 2 74 C-0.15625 73.56640625 -0.15625 73.56640625 -2 73 C-2.36351562 73.79664063 -2.36351562 73.79664063 -2.734375 74.609375 C-6.48805681 82.52098128 -6.48805681 82.52098128 -10 85 C-10.94875 84.9175 -11.8975 84.835 -12.875 84.75 C-16.03807014 84.63657084 -16.03807014 84.63657084 -17.5078125 86.73046875 C-18.5029976 88.20240483 -19.49518682 89.67637087 -20.484375 91.15234375 C-22 93 -22 93 -25.25 94 C-26.83333333 94 -28.41666667 94 -30 94 C-30.37125 95.051875 -30.7425 96.10375 -31.125 97.1875 C-32.94537241 101.42353249 -35.14573126 103.48292654 -39 106 C-41.19140625 105.625 -41.19140625 105.625 -43 105 C-43.35191406 105.56589844 -43.70382812 106.13179688 -44.06640625 106.71484375 C-48.17698296 112.82167964 -48.17698296 112.82167964 -52.75 113.8125 C-54.35875 113.9053125 -54.35875 113.9053125 -56 114 C-57.97104053 116.85481132 -57.97104053 116.85481132 -59.3125 119.4375 C-61.25640012 122.38934833 -62.9923327 124.13811072 -66 126 C-68.6875 126 -68.6875 126 -71 125 C-74.33798283 119.84235291 -73.65815866 113.30107705 -72.5 107.4921875 C-70.97156666 102.3684621 -68.97773329 98.60771159 -65 95 C-61.6875 94.625 -61.6875 94.625 -59 95 C-58.9175 95.7425 -58.835 96.485 -58.75 97.25 C-57.85157947 100.5442086 -56.41475201 101.66070899 -54 104 C-53.25 106.25 -53.25 106.25 -53 108 C-50.1796916 105.63186061 -49.5433151 103.91762207 -49 100.3125 C-47.52535249 92.02809814 -44.42059841 80.91806411 -37.97265625 75.203125 C-36 74 -36 74 -33.875 74.0625 C-31.40617383 75.29691308 -31.07445233 76.49294457 -30 79 C-29.2575 79.99 -29.2575 79.99 -28.5 81 C-27.05309812 82.92920251 -26.01297474 84.81820826 -25 87 C-22.63968332 84.63968332 -22.58718262 83.60304738 -22.0625 80.375 C-20.5157096 72.06992541 -17.43715679 60.98562616 -11.00390625 55.20703125 C-9 54 -9 54 -6.375 54 C-4 55 -4 55 -2.9375 57.4375 C-2.628125 58.283125 -2.31875 59.12875 -2 60 C0.28746533 61.47578409 2.40402647 62.13467549 5 63 C5.13277344 62.37351563 5.26554687 61.74703125 5.40234375 61.1015625 C5.66724609 59.87566406 5.66724609 59.87566406 5.9375 58.625 C6.11152344 57.81289062 6.28554688 57.00078125 6.46484375 56.1640625 C7 54 7 54 8 52 C7.80527305 50.08775028 7.80527305 50.08775028 7.30322266 47.92089844 C7.12618805 47.07952332 6.94915344 46.23814819 6.76675415 45.37127686 C6.46842178 44.00413544 6.46842178 44.00413544 6.1640625 42.609375 C5.96525482 41.672005 5.76644714 40.73463501 5.56161499 39.76885986 C4.92244203 36.76117463 4.27402338 33.75557353 3.625 30.75 C2.98499465 27.7583359 2.34688764 24.76627531 1.70980835 21.77398682 C1.31237143 19.91037436 0.91290215 18.04719385 0.51113892 16.18450928 C0.15325212 14.51749009 -0.19970609 12.84940133 -0.54656982 11.18005371 C-0.93629318 9.30629699 -1.34452434 7.43640665 -1.75634766 5.56738281 C-2 3 -2 3 0 0 Z M11 28 C12 32 12 32 12 32 Z M12 33 C13 37 13 37 13 37 Z M13 37 C13 38.65 13 40.3 13 42 C13.33 42 13.66 42 14 42 C14 40.35 14 38.7 14 37 C13.67 37 13.34 37 13 37 Z M16 38 C17 40 17 40 17 40 Z M14 42 C15 44 15 44 15 44 Z M19 46 C20 48 20 48 20 48 Z M18 48 C19 50 19 50 19 50 Z M17 51 C17 51.66 17 52.32 17 53 C17.99 52.67 18.98 52.34 20 52 C19.01 51.67 18.02 51.34 17 51 Z M-10 63 C-10.84098656 67.01804691 -11.05404945 70.01803543 -10 74 C-9.67 74 -9.34 74 -9 74 C-8.77825067 72.54364629 -8.57301302 71.08477044 -8.375 69.625 C-8.20097656 68.40683594 -8.20097656 68.40683594 -8.0234375 67.1640625 C-8.01570313 66.44992188 -8.00796875 65.73578125 -8 65 C-8.66 64.34 -9.32 63.68 -10 63 Z M1 65 C1 65.66 1 66.32 1 67 C1.99 66.67 2.98 66.34 4 66 C3.01 65.67 2.02 65.34 1 65 Z M-12 70 C-11.67 72.31 -11.34 74.62 -11 77 C-9.66695302 74.10813214 -9.66695302 74.10813214 -10.9375 71.8125 C-11.288125 71.214375 -11.63875 70.61625 -12 70 Z M-37 83 C-36 85 -36 85 -36 85 Z M-38 85 C-37 88 -37 88 -37 88 Z M-36 85 C-35 89 -35 89 -35 89 Z M-39 89 C-39 91.97 -39 94.94 -39 98 C-38.34 97.67 -37.68 97.34 -37 97 C-37.33 94.36 -37.66 91.72 -38 89 C-38.33 89 -38.66 89 -39 89 Z M-37 89 C-36 93 -36 93 -36 93 Z M-64 102 C-63 104 -63 104 -63 104 Z M-63 104 C-62 108 -62 108 -62 108 Z M-65 105 C-64 107 -64 107 -64 107 Z M-66 108 C-66 111.3 -66 114.6 -66 118 C-65.34 117.34 -64.68 116.68 -64 116 C-63.97624074 114.0068433 -63.97624074 114.0068433 -64.375 111.875 C-64.58125 110.59625 -64.7875 109.3175 -65 108 C-65.33 108 -65.66 108 -66 108 Z M-64 108 C-64 109.65 -64 111.3 -64 113 C-63.67 113 -63.34 113 -63 113 C-63 111.35 -63 109.7 -63 108 C-63.33 108 -63.66 108 -64 108 Z " fill="#3B3B34" transform="translate(332,148)"/>
<path d="M0 0 C1.91162109 0.27905273 1.91162109 0.27905273 4 1 C5.09309514 3.73273785 5.90122508 6.23168296 6.625 9.0625 C6.82867187 9.80177734 7.03234375 10.54105469 7.2421875 11.30273438 C8.05531444 14.28159364 8.83069258 17.2634336 9.52246094 20.27294922 C10.43623185 24.5561622 10.43623185 24.5561622 13 28 C13.4140625 30.1640625 13.4140625 30.1640625 13.625 32.625 C13.69976562 33.44226563 13.77453125 34.25953125 13.8515625 35.1015625 C13.90054687 35.72804687 13.94953125 36.35453125 14 37 C17.33283508 36.34749649 17.33283508 36.34749649 19.75 33.9375 C20.36875 32.9784375 20.36875 32.9784375 21 32 C22.32 32.33 23.64 32.66 25 33 C24.79503906 33.60328125 24.59007812 34.2065625 24.37890625 34.828125 C24.10949219 35.62734375 23.84007812 36.4265625 23.5625 37.25 C23.29566406 38.03890625 23.02882813 38.8278125 22.75390625 39.640625 C21.10741373 44.77979557 21.10741373 44.77979557 22 50 C25.73684636 48.54230778 27.05298684 46.7673902 29 43.3125 C29.50789063 42.42433594 30.01578125 41.53617188 30.5390625 40.62109375 C31.02117187 39.75613281 31.50328125 38.89117187 32 38 C32.79083838 36.62452344 33.582374 35.24944721 34.375 33.875 C34.91125 32.92625 35.4475 31.9775 36 31 C36.99 31 37.98 31 39 31 C40.3939399 35.1818197 39.10857638 37.27639597 37.4296875 41.23046875 C33.60903165 48.63168459 28.68269082 54.61961604 21 58 C20.34 58 19.68 58 19 58 C19.020625 59.134375 19.04125 60.26875 19.0625 61.4375 C19 65 19 65 18 66 C17.95919217 67.99958364 17.95745644 70.00045254 18 72 C16.02 72.495 16.02 72.495 14 73 C13.01 70.36 12.02 67.72 11 65 C10.443125 65.928125 9.88625 66.85625 9.3125 67.8125 C7.01390009 70.98084041 5.56974185 72.48285971 2 74 C-0.15625 73.56640625 -0.15625 73.56640625 -2 73 C-2.26554687 73.56589844 -2.53109375 74.13179688 -2.8046875 74.71484375 C-3.15789062 75.44832031 -3.51109375 76.18179688 -3.875 76.9375 C-4.22304688 77.66839844 -4.57109375 78.39929688 -4.9296875 79.15234375 C-6 81 -6 81 -8 82 C-8.33 81.01 -8.66 80.02 -9 79 C-9.99 78.67 -10.98 78.34 -12 78 C-11 75 -11 75 -9.875 72.3125 C-8.76292833 68.10251439 -9.26397477 65.26894634 -10 61 C-7.3125 59.8125 -7.3125 59.8125 -4 59 C-1.375 60.3125 -1.375 60.3125 1 62 C2.32284109 62.37280067 3.65580801 62.71357934 5 63 C5.19916016 62.06027344 5.19916016 62.06027344 5.40234375 61.1015625 C5.57894531 60.28429687 5.75554687 59.46703125 5.9375 58.625 C6.19853516 57.40683594 6.19853516 57.40683594 6.46484375 56.1640625 C7 54 7 54 8 52 C7.80527305 50.08775028 7.80527305 50.08775028 7.30322266 47.92089844 C7.12618805 47.07952332 6.94915344 46.23814819 6.76675415 45.37127686 C6.56786591 44.45984924 6.36897766 43.54842163 6.1640625 42.609375 C5.96525482 41.672005 5.76644714 40.73463501 5.56161499 39.76885986 C4.92244203 36.76117463 4.27402338 33.75557353 3.625 30.75 C2.98499465 27.7583359 2.34688764 24.76627531 1.70980835 21.77398682 C1.31237143 19.91037436 0.91290215 18.04719385 0.51113892 16.18450928 C0.15325212 14.51749009 -0.19970609 12.84940133 -0.54656982 11.18005371 C-0.93629318 9.30629699 -1.34452434 7.43640665 -1.75634766 5.56738281 C-2 3 -2 3 0 0 Z M11 28 C12 32 12 32 12 32 Z M12 33 C13 37 13 37 13 37 Z M13 37 C13 38.65 13 40.3 13 42 C13.33 42 13.66 42 14 42 C14 40.35 14 38.7 14 37 C13.67 37 13.34 37 13 37 Z M16 38 C17 40 17 40 17 40 Z M14 42 C15 44 15 44 15 44 Z M19 46 C20 48 20 48 20 48 Z M18 48 C19 50 19 50 19 50 Z M17 51 C17 51.66 17 52.32 17 53 C17.99 52.67 18.98 52.34 20 52 C19.01 51.67 18.02 51.34 17 51 Z M1 65 C1 65.66 1 66.32 1 67 C1.99 66.67 2.98 66.34 4 66 C3.01 65.67 2.02 65.34 1 65 Z " fill="#42423B" transform="translate(332,148)"/>
<path d="M0 0 C-0.33 4.29 -0.66 8.58 -1 13 C-1.66 13 -2.32 13 -3 13 C-3 10.03 -3 7.06 -3 4 C-9.93958487 8.94250176 -16.86787987 13.89948907 -23.76660156 18.89892578 C-31.77605177 24.70245552 -39.83492084 30.41716319 -48 36 C-37.98541618 37.78289939 -27.90147071 39.25382693 -17.77148438 40.21044922 C-15.83970916 40.40698111 -13.9178665 40.6964076 -12 41 C-11.67 41.66 -11.34 42.32 -11 43 C-13.31 42.67 -15.62 42.34 -18 42 C-18.185625 43.546875 -18.185625 43.546875 -18.375 45.125 C-19 49 -19 49 -20.125 52.3125 C-21.32603995 54.93304077 -21.32603995 54.93304077 -20 57 C-20.33984375 59.3828125 -20.33984375 59.3828125 -20.9375 62.125 C-21.13214844 63.03507812 -21.32679688 63.94515625 -21.52734375 64.8828125 C-21.68332031 65.58148438 -21.83929688 66.28015625 -22 67 C-18.50723735 66.20483914 -15.94698933 65.09391347 -13 63 C-11.67206394 60.93299345 -11.67206394 60.93299345 -11 59 C-10.34 59 -9.68 59 -9 59 C-9 58.34 -9 57.68 -9 57 C-8.01902344 56.78988281 -7.03804688 56.57976562 -6.02734375 56.36328125 C-1.19196156 54.97844335 2.44547844 52.1590588 6.4375 49.1875 C7.87212577 48.13717217 9.30831777 47.08898016 10.74609375 46.04296875 C11.79192627 45.28185791 11.79192627 45.28185791 12.85888672 44.50537109 C16.14976549 42.1916244 19.55859174 40.08108075 23 38 C23 38.99 23 39.98 23 41 C21.54150391 42.32763672 21.54150391 42.32763672 19.4765625 43.6796875 C18.32885376 44.44514893 18.32885376 44.44514893 17.15795898 45.22607422 C16.32208252 45.77021973 15.48620605 46.31436523 14.625 46.875 C12.87750035 48.03955977 11.13144179 49.20628446 9.38671875 50.375 C8.49130371 50.973125 7.59588867 51.57125 6.67333984 52.1875 C2.53091058 54.99602921 -1.51727025 57.92894256 -5.5625 60.875 C-6.31015625 61.41576172 -7.0578125 61.95652344 -7.828125 62.51367188 C-10.97198553 64.7886121 -14.10621929 67.07292633 -17.20703125 69.40625 C-18.08746094 70.0559375 -18.96789062 70.705625 -19.875 71.375 C-20.59429687 71.91898437 -21.31359375 72.46296875 -22.0546875 73.0234375 C-24 74 -24 74 -25.96435547 73.74804688 C-29.49061564 72.45223719 -31.18291688 69.11026355 -33.25 66.125 C-33.73235107 65.44679199 -34.21470215 64.76858398 -34.71166992 64.06982422 C-35.68920693 62.69520841 -36.66279725 61.31777703 -37.63232422 59.9375 C-39.48951912 57.30652915 -41.40156336 54.71709903 -43.3125 52.125 C-44.54489715 50.41899568 -45.77421883 48.71076416 -47 47 C-47.61359375 46.15179688 -48.2271875 45.30359375 -48.859375 44.4296875 C-49.70242188 43.22699219 -49.70242188 43.22699219 -50.5625 42 C-51.30693359 40.948125 -51.30693359 40.948125 -52.06640625 39.875 C-53 38 -53 38 -52 35 C-49.65745862 33.23564314 -47.32274079 31.6055074 -44.875 30 C-43.40099452 29.01112276 -41.92836839 28.02018681 -40.45703125 27.02734375 C-39.7088916 26.52315918 -38.96075195 26.01897461 -38.18994141 25.49951172 C-34.92383819 23.26312309 -31.74071655 20.92140294 -28.5625 18.5625 C-22.98289125 14.43462487 -17.35572041 10.38043061 -11.6875 6.375 C-10.95152588 5.85365479 -10.21555176 5.33230957 -9.45727539 4.79516602 C-8.7739917 4.31362061 -8.09070801 3.8320752 -7.38671875 3.3359375 C-6.78045654 2.90845215 -6.17419434 2.4809668 -5.54956055 2.04052734 C-3.5750411 0.7146408 -2.41087739 0 0 0 Z " fill="#997D3F" transform="translate(336,248)"/>
<path d="M0 0 C0.042721 1.66611905 0.04063832 3.33382885 0 5 C-0.33 5.33 -0.66 5.66 -1 6 C-1.35422319 7.53130834 -1.65758487 9.07447589 -1.9375 10.62109375 C-2.11023438 11.55630859 -2.28296875 12.49152344 -2.4609375 13.45507812 C-2.63882813 14.43927734 -2.81671875 15.42347656 -3 16.4375 C-3.35143204 18.37419614 -3.705473 20.31042123 -4.0625 22.24609375 C-4.29646484 23.54051392 -4.29646484 23.54051392 -4.53515625 24.86108398 C-5 27 -5 27 -6 29 C-6.22622081 30.70363822 -6.40888473 32.41328701 -6.5625 34.125 C-6.64628906 35.03507812 -6.73007812 35.94515625 -6.81640625 36.8828125 C-6.90728516 37.93082031 -6.90728516 37.93082031 -7 39 C-11.22969299 38.5464453 -15.45863978 38.08624957 -19.6875 37.625 C-21.45577148 37.43550781 -21.45577148 37.43550781 -23.25976562 37.2421875 C-31.21117923 36.37079971 -39.10462434 35.28309119 -47 34 C-44.56353838 31.47838507 -42.15788275 29.26343626 -39.27734375 27.265625 C-38.57971924 26.77819824 -37.88209473 26.29077148 -37.16333008 25.78857422 C-36.42880615 25.28084473 -35.69428223 24.77311523 -34.9375 24.25 C-33.39801787 23.17507991 -31.85895492 22.09955922 -30.3203125 21.0234375 C-29.20317871 20.24371582 -29.20317871 20.24371582 -28.06347656 19.44824219 C-25.45815875 17.61971104 -22.88165648 15.75393533 -20.3125 13.875 C-16.01153755 10.73377319 -11.70002944 7.60798246 -7.375 4.5 C-6.75794189 4.05382324 -6.14088379 3.60764648 -5.50512695 3.14794922 C-1.11495711 0 -1.11495711 0 0 0 Z " fill="#F1B51D" transform="translate(334,251)"/>
<path d="M0 0 C3.89621332 0.4761093 7.79189716 0.95642326 11.6875 1.4375 C13.34168945 1.63956055 13.34168945 1.63956055 15.02929688 1.84570312 C16.6293457 2.04389648 16.6293457 2.04389648 18.26171875 2.24609375 C19.24100342 2.36654053 20.22028809 2.4869873 21.22924805 2.61108398 C23.8466442 2.97847425 26.41474783 3.45323877 29 4 C29 4.66 29 5.32 29 6 C27.35 6.33 25.7 6.66 24 7 C24 7.66 24 8.32 24 9 C22.35 9.33 20.7 9.66 19 10 C19 11.32 19 12.64 19 14 C18.01 13.67 17.02 13.34 16 13 C15.67 13.99 15.34 14.98 15 16 C14.01 16 13.02 16 12 16 C12 16.99 12 17.98 12 19 C11.236875 19.061875 10.47375 19.12375 9.6875 19.1875 C6.14563333 20.2582969 5.82254259 21.90960169 4 25 C2.68 25 1.36 25 0 25 C0 25.66 0 26.32 0 27 C-0.66 27.33 -1.32 27.66 -2 28 C-2.2475 28.598125 -2.495 29.19625 -2.75 29.8125 C-4.55483407 32.97095962 -6.87001177 34.22020277 -10 36 C-11.65743071 36.37657977 -13.32383886 36.71826833 -15 37 C-14.68991116 35.39536551 -14.37683713 33.79130769 -14.0625 32.1875 C-13.80146484 30.84751953 -13.80146484 30.84751953 -13.53515625 29.48046875 C-13 27 -13 27 -12 24 C-12.33 23.01 -12.66 22.02 -13 21 C-12.03523618 18.98276656 -11.03161608 16.98387708 -10 15 C-9.30092586 12.26427415 -9.30092586 12.26427415 -9 10 C-6.03 10 -3.06 10 0 10 C0 6.7 0 3.4 0 0 Z " fill="#CD9719" transform="translate(327,280)"/>
<path d="M0 0 C7.74136601 -0.10920422 15.31395526 0.02840067 23 1 C23.88801234 4.57625346 24.00799486 7.19202082 23.2578125 10.79296875 C23.07863281 11.67017578 22.89945312 12.54738281 22.71484375 13.45117188 C22.52019531 14.35416016 22.32554687 15.25714844 22.125 16.1875 C21.93808594 17.10208984 21.75117188 18.01667969 21.55859375 18.95898438 C20.15970686 25.68058628 20.15970686 25.68058628 19 28 C18.34 28 17.68 28 17 28 C16.67 26.68 16.34 25.36 16 24 C15.1028125 23.9071875 15.1028125 23.9071875 14.1875 23.8125 C11.14898647 22.68390926 10.60629777 20.7237223 9 18 C8.01 18 7.02 18 6 18 C4.99678464 15.12411597 4.06400229 12.38401374 3.5625 9.375 C2.9143915 6.63854189 1.69217354 5.20718288 0 3 C0 2.01 0 1.02 0 0 Z " fill="#C9972E" transform="translate(291,288)"/>
<path d="M0 0 C2 3 2 3 1.875 4.93359375 C0.72806506 7.64220349 -0.84632648 9.06212616 -3 11.0625 C-6.37735633 14.31752689 -9.40397038 17.63297075 -12.3125 21.3125 C-16.16760861 26.13646719 -20.32057053 30.47835203 -24.7512207 34.76489258 C-27.19020481 37.13497651 -29.48447864 39.53435478 -31.62109375 42.17578125 C-34.48148714 45.57161773 -37.32890076 47.55260051 -41 50 C-41 45.62640674 -38.28202009 43.54077717 -35.5 40.4375 C-34.38412496 39.16649747 -33.26954347 37.89435813 -32.15625 36.62109375 C-31.61097656 35.99960449 -31.06570313 35.37811523 -30.50390625 34.73779297 C-28.60351291 32.54185144 -26.79356078 30.28375006 -25 28 C-21.21861429 23.20177107 -17.23961296 18.58714776 -13.2109375 13.99609375 C-10.15808788 10.4828938 -7.52631448 6.90842374 -5 3 C-2.4 0 -2.4 0 0 0 Z " fill="#7D7A6F" transform="translate(294,304)"/>
<path d="M0 0 C-0.33 4.29 -0.66 8.58 -1 13 C-1.66 13 -2.32 13 -3 13 C-3 10.03 -3 7.06 -3 4 C-10.68566333 9.47387276 -18.35409944 14.97069654 -26 20.5 C-33.64590056 26.02930346 -41.31433667 31.52612724 -49 37 C-47.33657163 38.66342837 -45.2174291 38.36048097 -42.9375 38.5625 C-42.01839844 38.64628906 -41.09929687 38.73007812 -40.15234375 38.81640625 C-39.08693359 38.90728516 -39.08693359 38.90728516 -38 39 C-38 39.33 -38 39.66 -38 40 C-40.31 40 -42.62 40 -45 40 C-42.97366931 44.32371893 -42.97366931 44.32371893 -40 48 C-39.875 51.625 -39.875 51.625 -40 55 C-44.99645949 50.18198549 -48.85643489 45.17486005 -52 39 C-52 37.68 -52 36.36 -52 35 C-49.67762222 33.11707347 -47.44677182 31.5339966 -44.9375 29.9375 C-43.4543077 28.95787794 -41.97256831 27.97605306 -40.4921875 26.9921875 C-39.73776367 26.49428711 -38.98333984 25.99638672 -38.20605469 25.48339844 C-34.91878031 23.27296471 -31.73963447 20.92732821 -28.5625 18.5625 C-22.98352671 14.43378967 -17.35569739 10.38041435 -11.6875 6.375 C-10.95152588 5.85365479 -10.21555176 5.33230957 -9.45727539 4.79516602 C-8.7739917 4.31362061 -8.09070801 3.8320752 -7.38671875 3.3359375 C-6.78045654 2.90845215 -6.17419434 2.4809668 -5.54956055 2.04052734 C-3.5750411 0.7146408 -2.41087739 0 0 0 Z " fill="#75613F" transform="translate(336,248)"/>
<path d="M0 0 C1.32 0.66 2.64 1.32 4 2 C3.47642146 5.94986285 2.55632736 7.95530137 -0.203125 10.8125 C-0.85410156 11.49570312 -1.50507813 12.17890625 -2.17578125 12.8828125 C-2.86027344 13.58148438 -3.54476563 14.28015625 -4.25 15 C-4.91902344 15.69867188 -5.58804687 16.39734375 -6.27734375 17.1171875 C-9.092529 20.04851988 -11.94037277 22.94078513 -14.82421875 25.8046875 C-16.52990421 27.52568432 -18.07135257 29.22339735 -19.5625 31.125 C-21.61807996 33.54953021 -23.24544394 35.4390849 -26 37 C-26.99 36.67 -27.98 36.34 -29 36 C-28.41883423 35.29822632 -28.41883423 35.29822632 -27.82592773 34.58227539 C-16.78557044 21.36288036 -16.78557044 21.36288036 -6.32421875 7.6875 C-5.78410156 6.945 -5.24398438 6.2025 -4.6875 5.4375 C-4.21699219 4.77621094 -3.74648438 4.11492187 -3.26171875 3.43359375 C-2.63716797 2.72396484 -2.63716797 2.72396484 -2 2 C-1.34 2 -0.68 2 0 2 C0 1.34 0 0.68 0 0 Z " fill="#939183" transform="translate(285,299)"/>
<path d="M0 0 C0.66 0.33 1.32 0.66 2 1 C0.35 2.32 -1.3 3.64 -3 5 C-2.34 5.66 -1.68 6.32 -1 7 C-1.29369827 8.34262065 -1.6278958 9.67696283 -2 11 C-1.67 11.66 -1.34 12.32 -1 13 C-1.66 13 -2.32 13 -3 13 C-3 13.66 -3 14.32 -3 15 C-0.525 15.495 -0.525 15.495 2 16 C2.33 16.99 2.66 17.98 3 19 C-5.5511272 19.27733386 -13.58481953 18.52016163 -22 17 C-18.28599375 12.8877089 -13.84161517 9.94397329 -9.3125 6.8125 C-7.76639013 5.73644819 -6.22078936 4.65966439 -4.67578125 3.58203125 C-3.99427002 3.10999268 -3.31275879 2.6379541 -2.6105957 2.15161133 C-1.04160807 1.09624748 -1.04160807 1.09624748 0 0 Z " fill="#EDB426" transform="translate(309,268)"/>
<path d="M0 0 C7.74136601 -0.10920422 15.31395526 0.02840067 23 1 C24.26264601 5.29299643 23.62950412 7.87831311 22 12 C21.34 12 20.68 12 20 12 C19.67 12.99 19.34 13.98 19 15 C19 14.01 19 13.02 19 12 C17.68 12 16.36 12 15 12 C14.67 12.66 14.34 13.32 14 14 C14.20625 13.05125 14.4125 12.1025 14.625 11.125 C14.74875 10.09375 14.8725 9.0625 15 8 C14.34 7.34 13.68 6.68 13 6 C10.66253478 6.30300475 8.32914823 6.63858045 6 7 C3.6875 6.75 3.6875 6.75 2 6 C0 3 0 3 0 0 Z " fill="#C6972A" transform="translate(291,288)"/>
<path d="M0 0 C2.33524782 2.25740623 4.18705073 4.2805761 6 7 C5.625 9.1875 5.625 9.1875 5 11 C4.01 11 3.02 11 2 11 C0.25207233 11.90926799 0.25207233 11.90926799 -1.51171875 13.1953125 C-2.51984619 13.89466919 -2.51984619 13.89466919 -3.54833984 14.6081543 C-4.2542627 15.10871338 -4.96018555 15.60927246 -5.6875 16.125 C-6.40631348 16.62620361 -7.12512695 17.12740723 -7.86572266 17.64379883 C-11.59213465 20.25380787 -15.26477617 22.91810464 -18.875 25.6875 C-22 28 -22 28 -24 28 C-22.125 23.125 -22.125 23.125 -21 22 C-19.33382885 21.95936168 -17.66611905 21.957279 -16 22 C-16 21.01 -16 20.02 -16 19 C-15.01 19 -14.02 19 -13 19 C-12.67 17.68 -12.34 16.36 -12 15 C-11.67 15.66 -11.34 16.32 -11 17 C-10.34 17 -9.68 17 -9 17 C-9.185625 16.360625 -9.37125 15.72125 -9.5625 15.0625 C-9.706875 14.381875 -9.85125 13.70125 -10 13 C-9 12 -9 12 -6.4375 11.9375 C-5.633125 11.958125 -4.82875 11.97875 -4 12 C-4 11.34 -4 10.68 -4 10 C-4.99 9.67 -5.98 9.34 -7 9 C-4.36 9 -1.72 9 1 9 C1 8.34 1 7.68 1 7 C0.06994141 6.92652344 0.06994141 6.92652344 -0.87890625 6.8515625 C-6.62562667 6.36639542 -12.34437044 5.7443719 -18.0625 5 C-19.96708984 4.7525 -19.96708984 4.7525 -21.91015625 4.5 C-25 4 -25 4 -27 3 C-26.67 2.34 -26.34 1.68 -26 1 C-24.3745692 1.14095064 -22.74965949 1.28792087 -21.125 1.4375 C-20.22007812 1.51871094 -19.31515625 1.59992188 -18.3828125 1.68359375 C-16 2 -16 2 -14 3 C-12.12620395 3.07033769 -10.24998898 3.0843022 -8.375 3.0625 C-7.37210937 3.05347656 -6.36921875 3.04445313 -5.3359375 3.03515625 C-4.17964844 3.01775391 -4.17964844 3.01775391 -3 3 C-3 3.99 -3 4.98 -3 6 C-1.68 5.67 -0.36 5.34 1 5 C0.67 3.35 0.34 1.7 0 0 Z " fill="#BF9138" transform="translate(355,277)"/>
<path d="M0 0 C0.66 0 1.32 0 2 0 C2.41378906 0.87785156 2.82757813 1.75570312 3.25390625 2.66015625 C4.92530101 5.85711937 6.76531552 8.56487983 8.9375 11.4375 C11.96105511 15.51320799 14.55503348 19.56283853 17 24 C17.5775 24.763125 18.155 25.52625 18.75 26.3125 C20 28 20 28 20 30 C16.7 29.67 13.4 29.34 10 29 C10 29.66 10 30.32 10 31 C8.68 30.67 7.36 30.34 6 30 C7.32 29.34 8.64 28.68 10 28 C9.67 27.01 9.34 26.02 9 25 C9.9375 22.8125 9.9375 22.8125 11 21 C8.31158141 18.74754119 6.35358125 17.11786042 3 16 C2.67 14.02 2.34 12.04 2 10 C1.34 10 0.68 10 0 10 C0 6.7 0 3.4 0 0 Z " fill="#C69721" transform="translate(335,247)"/>
<path d="M0 0 C2.97 0.495 2.97 0.495 6 1 C6 1.99 6 2.98 6 4 C4.68 4.33 3.36 4.66 2 5 C2.14230808 6.41702513 2.28900746 7.8336096 2.4375 9.25 C2.55931641 10.43335938 2.55931641 10.43335938 2.68359375 11.640625 C2.93046316 13.98646949 2.93046316 13.98646949 3.66015625 16.109375 C4 18 4 18 2 21 C3.32 20.67 4.64 20.34 6 20 C2.7129243 23.81300782 -0.39727838 25.22972246 -5 27 C-5 23.29079655 -4.16071084 19.98037701 -3.33984375 16.375 C-2.79889578 13.85761343 -2.79889578 13.85761343 -4 11 C-3.03523618 8.98276656 -2.03161608 6.98387708 -1 5 C-0.30092586 2.26427415 -0.30092586 2.26427415 0 0 Z " fill="#CA9820" transform="translate(318,290)"/>
<path d="M0 0 C0.495 1.485 0.495 1.485 1 3 C0.51869629 3.32572998 0.03739258 3.65145996 -0.45849609 3.98706055 C-2.7659124 5.55107304 -5.07082582 7.11871474 -7.375 8.6875 C-8.22320312 9.26459717 -9.07140625 9.84169434 -9.9453125 10.4362793 C-16.84157839 15.15259575 -23.61396008 20.02366892 -30.29833984 25.03588867 C-31.0042627 25.55642822 -31.71018555 26.07696777 -32.4375 26.61328125 C-33.05496094 27.07516846 -33.67242187 27.53705566 -34.30859375 28.01293945 C-36 29 -36 29 -39 29 C-38.38125 28.4225 -37.7625 27.845 -37.125 27.25 C-35.18652947 25.19750179 -34.09985751 23.56633418 -33 21 C-32.34 21 -31.68 21 -31 21 C-31 20.34 -31 19.68 -31 19 C-29.53046875 18.68482422 -29.53046875 18.68482422 -28.03125 18.36328125 C-23.18208503 16.97414672 -19.51320082 14.15611992 -15.5 11.1875 C-14.41912109 10.40536133 -14.41912109 10.40536133 -13.31640625 9.60742188 C-11.89421461 8.57742594 -10.47485748 7.54350295 -9.05859375 6.50537109 C-6.05751681 4.31079799 -3.02883474 2.1560521 0 0 Z " fill="#88764B" transform="translate(358,286)"/>
<path d="M0 0 C0.99 0 1.98 0 3 0 C4.41571534 4.24714602 2.94255482 6.53831055 1.2421875 10.54296875 C-0.459341 13.90857072 -1.94220638 15.78309962 -5 18 C-7.3125 17.8125 -7.3125 17.8125 -9 17 C-7.21873667 13.3655031 -5.29802134 9.81115063 -3.375 6.25 C-2.88773437 5.34701172 -2.88773437 5.34701172 -2.390625 4.42578125 C-1.59429415 2.95022703 -0.79722161 1.47507314 0 0 Z " fill="#504F46" transform="translate(368,179)"/>
<path d="M0 0 C1.5625 1.25 1.5625 1.25 3 3 C2.6875 5.1875 2.6875 5.1875 2 7 C4.31 7 6.62 7 9 7 C8.67 8.32 8.34 9.64 8 11 C3.71 11 -0.58 11 -5 11 C-4.34 9.68 -3.68 8.36 -3 7 C-3.66 7 -4.32 7 -5 7 C-5.33 5.68 -5.66 4.36 -6 3 C-6.99 3.99 -7.98 4.98 -9 6 C-8.67 4.68 -8.34 3.36 -8 2 C-7.236875 1.855625 -6.47375 1.71125 -5.6875 1.5625 C-2.91827092 1.0367406 -2.91827092 1.0367406 0 0 Z " fill="#D4A037" transform="translate(304,293)"/>
<path d="M0 0 C3 1 3 1 4.1875 3.0625 C4.455625 3.701875 4.72375 4.34125 5 5 C1.0412992 10.23570106 -3.51960679 14.3607605 -9 18 C-9.66 18 -10.32 18 -11 18 C-9.48103632 13.56829827 -7.07360191 9.96975924 -4.375 6.1875 C-3.95476562 5.59001953 -3.53453125 4.99253906 -3.1015625 4.37695312 C-2.07220272 2.91479435 -1.0367177 1.45695101 0 0 Z " fill="#7D7C6E" transform="translate(293,313)"/>
<path d="M0 0 C2 3 2 3 1.890625 4.91015625 C0.68888798 7.73002163 -1.038229 9.32459956 -3.25 11.4375 C-4.05824219 12.21867187 -4.86648438 12.99984375 -5.69921875 13.8046875 C-6.45847656 14.52914063 -7.21773438 15.25359375 -8 16 C-9.02434333 17.01731123 -10.04606991 18.03728233 -11.0625 19.0625 C-11.701875 19.701875 -12.34125 20.34125 -13 21 C-13.66 20.34 -14.32 19.68 -15 19 C-11.37 14.71 -7.74 10.42 -4 6 C-4.66 6 -5.32 6 -6 6 C-4.90218919 2.70656758 -3.7827394 0 0 0 Z " fill="#96938A" transform="translate(294,304)"/>
<path d="M0 0 C0.99 0.66 1.98 1.32 3 2 C2.33613281 2.65226562 1.67226563 3.30453125 0.98828125 3.9765625 C-4.60013628 9.41669217 -4.60013628 9.41669217 -9.6875 15.3125 C-12.49329457 18.57328828 -15.42767401 20.61844934 -19 23 C-19 18.41863871 -16.16104479 16.22608644 -13.25 12.875 C-12.44175781 11.90626953 -12.44175781 11.90626953 -11.6171875 10.91796875 C-11.08867187 10.30308594 -10.56015625 9.68820312 -10.015625 9.0546875 C-9.53383789 8.49249512 -9.05205078 7.93030273 -8.55566406 7.35107422 C-6.74338513 5.77713329 -5.34174636 5.39954864 -3 5 C-3 4.34 -3 3.68 -3 3 C-2.34 3 -1.68 3 -1 3 C-0.67 2.01 -0.34 1.02 0 0 Z " fill="#A1A08E" transform="translate(272,331)"/>
<path d="M0 0 C10.07671018 0.59830467 19.99625799 1.67991858 30 3 C31.09876465 3.10634766 31.09876465 3.10634766 32.21972656 3.21484375 C34.15424497 3.41113667 36.07903821 3.69867266 38 4 C38.495 4.99 38.495 4.99 39 6 C36.69 5.67 34.38 5.34 32 5 C31.855625 6.11375 31.71125 7.2275 31.5625 8.375 C31 12 31 12 30 14 C29.34 14 28.68 14 28 14 C28 11.03 28 8.06 28 5 C27.22285645 4.91959473 26.44571289 4.83918945 25.64501953 4.75634766 C22.13732473 4.38830484 18.6312197 4.00682916 15.125 3.625 C13.29001953 3.43550781 13.29001953 3.43550781 11.41796875 3.2421875 C10.25136719 3.11328125 9.08476562 2.984375 7.8828125 2.8515625 C6.80402832 2.73635254 5.72524414 2.62114258 4.61376953 2.50244141 C2 2 2 2 0 0 Z " fill="#744E06" transform="translate(286,285)"/>
<path d="M0 0 C0.886875 0.12375 1.77375 0.2475 2.6875 0.375 C3.0175 2.025 3.3475 3.675 3.6875 5.375 C2.0375 5.375 0.3875 5.375 -1.3125 5.375 C-1.621875 6.15875 -1.93125 6.9425 -2.25 7.75 C-4.08086158 12.27330508 -4.08086158 12.27330508 -6.875 13.5 C-7.679375 13.78875 -8.48375 14.0775 -9.3125 14.375 C-9.08070618 9.8936528 -8.85439941 6.53169537 -6.125 2.875 C-3.3125 0.375 -3.3125 0.375 0 0 Z " fill="#0E0D0A" transform="translate(270.3125,242.625)"/>
<path d="M0 0 C1.32 0.66 2.64 1.32 4 2 C1.39152032 3.89707613 -1.21730666 5.79364214 -3.828125 7.6875 C-5.92912882 9.21926633 -8.0230206 10.76083944 -10.109375 12.3125 C-11.08390625 13.034375 -12.0584375 13.75625 -13.0625 14.5 C-14.41021484 15.50546875 -14.41021484 15.50546875 -15.78515625 16.53125 C-18 18 -18 18 -20 18 C-18.125 13.125 -18.125 13.125 -17 12 C-15.33382885 11.95936168 -13.66611905 11.957279 -12 12 C-12 11.01 -12 10.02 -12 9 C-11.01 9 -10.02 9 -9 9 C-8.67 7.68 -8.34 6.36 -8 5 C-7.67 5.66 -7.34 6.32 -7 7 C-6.34 7 -5.68 7 -5 7 C-5.2784375 6.0409375 -5.2784375 6.0409375 -5.5625 5.0625 C-5.706875 4.381875 -5.85125 3.70125 -6 3 C-5 2 -5 2 -2.4375 1.9375 C-1.2309375 1.9684375 -1.2309375 1.9684375 0 2 C0 1.34 0 0.68 0 0 Z " fill="#C29430" transform="translate(351,287)"/>
<path d="M0 0 C5.44693314 -0.09688221 10.63904667 -0.12862175 16 1 C16 1.99 16 2.98 16 4 C18.475 4.495 18.475 4.495 21 5 C20.67 6.32 20.34 7.64 20 9 C18.02 9.33 16.04 9.66 14 10 C13.67 8.68 13.34 7.36 13 6 C11.68 6 10.36 6 9 6 C9 4.68 9 3.36 9 2 C7.6078125 2.3403125 7.6078125 2.3403125 6.1875 2.6875 C5.135625 2.790625 4.08375 2.89375 3 3 C1.30078125 1.51953125 1.30078125 1.51953125 0 0 Z " fill="#CC970E" transform="translate(292,289)"/>
<path d="M0 0 C0.33 1.32 0.66 2.64 1 4 C0.01 4.66 -0.98 5.32 -2 6 C-1.34 4.02 -0.68 2.04 0 0 Z M-7 0 C-4.875 0.9375 -4.875 0.9375 -3 2 C-3 2.66 -3 3.32 -3 4 C-3.66 4 -4.32 4 -5 4 C-5 4.66 -5 5.32 -5 6 C-4.01 6.33 -3.02 6.66 -2 7 C-5.63 7 -9.26 7 -13 7 C-13.33 6.01 -13.66 5.02 -14 4 C-15.98 4 -17.96 4 -20 4 C-19.67 3.01 -19.34 2.02 -19 1 C-17.95199219 1.01740234 -17.95199219 1.01740234 -16.8828125 1.03515625 C-15.97273438 1.04417969 -15.06265625 1.05320312 -14.125 1.0625 C-12.76761719 1.07990234 -12.76761719 1.07990234 -11.3828125 1.09765625 C-8.9831415 1.16249257 -8.9831415 1.16249257 -7 0 Z " fill="#F1B61F" transform="translate(325,280)"/>
<path d="M0 0 C6.93 0.495 6.93 0.495 14 1 C14 1.33 14 1.66 14 2 C11.69 2 9.38 2 7 2 C9.02633069 6.32371893 9.02633069 6.32371893 12 10 C12.125 13.625 12.125 13.625 12 17 C6.62218594 11.81425073 3.18435793 6.70989708 0 0 Z " fill="#B0934C" transform="translate(284,286)"/>
<path d="M0 0 C4.42871657 2.21435828 6.54300595 4.72301036 9 9 C9 9.66 9 10.32 9 11 C5.7 10.67 2.4 10.34 -1 10 C-1 10.66 -1 11.32 -1 12 C-2.32 11.67 -3.64 11.34 -5 11 C-3.68 10.34 -2.36 9.68 -1 9 C-1.33 8.01 -1.66 7.02 -2 6 C-1.0625 3.9375 -1.0625 3.9375 0 2 C0 1.34 0 0.68 0 0 Z " fill="#CC9824" transform="translate(346,266)"/>
<path d="M0 0 C2.97 0.495 2.97 0.495 6 1 C6 1.99 6 2.98 6 4 C4.68 4.33 3.36 4.66 2 5 C2 8.3 2 11.6 2 15 C0.35 14.67 -1.3 14.34 -3 14 C-4 11 -4 11 -2.625 8.125 C-2.08875 7.09375 -1.5525 6.0625 -1 5 C-0.30092586 2.26427415 -0.30092586 2.26427415 0 0 Z " fill="#C6962C" transform="translate(318,290)"/>
<path d="M0 0 C3.75152731 0.44635482 7.50084699 0.90915542 11.25 1.375 C12.31347656 1.50132812 13.37695312 1.62765625 14.47265625 1.7578125 C15.49746094 1.88671875 16.52226562 2.015625 17.578125 2.1484375 C18.52075195 2.26364746 19.46337891 2.37885742 20.43457031 2.49755859 C22.94528391 2.98928381 24.78816116 3.73934288 27 5 C22.87471501 4.86160047 18.74985892 4.7130259 14.625 4.5625 C13.449375 4.52318359 12.27375 4.48386719 11.0625 4.44335938 C9.38027344 4.38051758 9.38027344 4.38051758 7.6640625 4.31640625 C6.62717285 4.27974854 5.5902832 4.24309082 4.52197266 4.20532227 C2 4 2 4 0 3 C0 2.01 0 1.02 0 0 Z " fill="#503409" transform="translate(328,280)"/>
<path d="M0 0 C-0.33 4.29 -0.66 8.58 -1 13 C-1.66 13 -2.32 13 -3 13 C-3 10.03 -3 7.06 -3 4 C-8.445 7.96 -8.445 7.96 -14 12 C-14.66 11.67 -15.32 11.34 -16 11 C-12.20918993 6.84233734 -5.90642573 0 0 0 Z " fill="#876A2E" transform="translate(336,248)"/>
<path d="M0 0 C0.66 0.33 1.32 0.66 2 1 C1.67 2.65 1.34 4.3 1 6 C0.01 6.33 -0.98 6.66 -2 7 C-3.20882096 9.00016466 -3.20882096 9.00016466 -4 11 C-6.375 11.1875 -6.375 11.1875 -9 11 C-9.66 10.01 -10.32 9.02 -11 8 C-10.34 7.01 -9.68 6.02 -9 5 C-7.35 5.33 -5.7 5.66 -4 6 C-3.8453125 5.071875 -3.8453125 5.071875 -3.6875 4.125 C-3 2 -3 2 0 0 Z " fill="#CD9523" transform="translate(341,263)"/>
<path d="M0 0 C0.33 0.99 0.66 1.98 1 3 C14.365 3.495 14.365 3.495 28 4 C28.33 4.66 28.66 5.32 29 6 C23.06 6.495 23.06 6.495 17 7 C17 6.34 17 5.68 17 5 C16.01 5 15.02 5 14 5 C13.67 5.99 13.34 6.98 13 8 C12.01 8.33 11.02 8.66 10 9 C10 8.34 10 7.68 10 7 C9.34 7 8.68 7 8 7 C8 6.34 8 5.68 8 5 C5.36 5 2.72 5 0 5 C0 3.35 0 1.7 0 0 Z " fill="#BB8B2C" transform="translate(327,280)"/>
<path d="M0 0 C4.29 0 8.58 0 13 0 C13 0.66 13 1.32 13 2 C9.7 2 6.4 2 3 2 C5.46278801 3.231394 7.2795055 3.07159196 10 3 C10 3.99 10 4.98 10 6 C7.69 6.33 5.38 6.66 3 7 C0 3.375 0 3.375 0 0 Z " fill="#C99827" transform="translate(291,288)"/>
<path d="M0 0 C2.97 0.495 2.97 0.495 6 1 C2.29909479 4.9252025 -1.54959656 7.94580156 -6 11 C-6.66 10.67 -7.32 10.34 -8 10 C-7.38125 9.4225 -6.7625 8.845 -6.125 8.25 C-4.18652947 6.19750179 -3.09985751 4.56633418 -2 2 C-1.34 2 -0.68 2 0 2 C0 1.34 0 0.68 0 0 Z " fill="#A0894F" transform="translate(327,305)"/>
<path d="M0 0 C0.33 0.99 0.66 1.98 1 3 C-5.7685324 3.10152799 -12.30324864 3.03026944 -19 2 C-19 1.67 -19 1.34 -19 1 C-12.26718787 -0.700773 -6.86747109 -1.10765663 0 0 Z " fill="#E6B139" transform="translate(311,284)"/>
<path d="M0 0 C2.33524782 2.25740623 4.18705073 4.2805761 6 7 C5.625 9.1875 5.625 9.1875 5 11 C2.37165722 11 -0.08186701 10.80210238 -2.6875 10.5 C-3.49574219 10.4071875 -4.30398438 10.314375 -5.13671875 10.21875 C-5.75160156 10.1465625 -6.36648438 10.074375 -7 10 C-7 9.67 -7 9.34 -7 9 C-4.36 9 -1.72 9 1 9 C0.67 8.01 0.34 7.02 0 6 C0 4 0 2 0 0 Z " fill="#CFAA57" transform="translate(355,277)"/>
<path d="M0 0 C0 4.35243435 -2.64470425 6.49881137 -5.375 9.625 C-6.13683594 10.5221875 -6.13683594 10.5221875 -6.9140625 11.4375 C-10.71335565 15.85667783 -10.71335565 15.85667783 -13 17 C-12.43554924 12.89313411 -10.22847623 10.50085658 -7.625 7.375 C-6.83351563 6.41335938 -6.04203125 5.45171875 -5.2265625 4.4609375 C-3 2 -3 2 0 0 Z " fill="#5F5D53" transform="translate(290,308)"/>
<path d="M0 0 C0.66 0.33 1.32 0.66 2 1 C2 1.66 2 2.32 2 3 C0.2421875 4.3671875 0.2421875 4.3671875 -2.125 5.875 C-2.94097656 6.4009375 -3.75695312 6.926875 -4.59765625 7.46875 C-5.39042969 7.9740625 -6.18320312 8.479375 -7 9 C-8.18971392 9.78833569 -9.37762936 10.57940341 -10.5625 11.375 C-11.366875 11.91125 -12.17125 12.4475 -13 13 C-13.66 12.34 -14.32 11.68 -15 11 C-10.05 7.37 -5.1 3.74 0 0 Z " fill="#917E53" transform="translate(319,258)"/>
<path d="M0 0 C0.66 0.33 1.32 0.66 2 1 C3.70683154 6.54720251 2.3102992 11.52056697 1 17 C0.01 17 -0.98 17 -2 17 C-2.25706972 11.08739655 -1.2982126 5.76081841 0 0 Z " fill="#8B671B" transform="translate(313,298)"/>
<path d="M0 0 C4.05204951 1.35068317 4.87548363 3.39577729 7.1875 6.9375 C7.90292969 8.01902344 8.61835938 9.10054688 9.35546875 10.21484375 C11 13 11 13 11 15 C11.66 15.33 12.32 15.66 13 16 C11.296875 15.90234375 11.296875 15.90234375 9 15 C7.25517076 12.87673925 5.74911145 10.84534887 4.25 8.5625 C3.83878906 7.96373047 3.42757813 7.36496094 3.00390625 6.74804688 C0 2.29208627 0 2.29208627 0 0 Z " fill="#695C3A" transform="translate(298,305)"/>
<path d="M0 0 C0.99 0.33 1.98 0.66 3 1 C0.15009514 6.81380592 -2.53304842 9.53058842 -8 13 C-8 9.00717059 -6.52191924 7.84668408 -4 4.8125 C-3.2575 3.91144531 -2.515 3.01039063 -1.75 2.08203125 C-1.1725 1.39496094 -0.595 0.70789063 0 0 Z " fill="#8E8E7A" transform="translate(261,341)"/>
<path d="M0 0 C0 1.65 0 3.3 0 5 C-0.99 5.495 -0.99 5.495 -2 6 C-2 5.34 -2 4.68 -2 4 C-2.66 4 -3.32 4 -4 4 C-4.33 4.99 -4.66 5.98 -5 7 C-7.0625 7.6875 -7.0625 7.6875 -9 8 C-9 8.66 -9 9.32 -9 10 C-10.32 9.67 -11.64 9.34 -13 9 C-11.02297434 7.49710267 -9.0435417 5.99758658 -7.0625 4.5 C-6.49853516 4.07074219 -5.93457031 3.64148438 -5.35351562 3.19921875 C-1.11328125 0 -1.11328125 0 0 0 Z " fill="#DEB044" transform="translate(334,251)"/>
<path d="M0 0 C2 3 2 3 1.625 5.1875 C1.41875 5.785625 1.2125 6.38375 1 7 C0.01 6.67 -0.98 6.34 -2 6 C-2 6.66 -2 7.32 -2 8 C-3.32 8.33 -4.64 8.66 -6 9 C-5.67 8.01 -5.34 7.02 -5 6 C-5 5.01 -5 4.02 -5 3 C-2.55555556 0 -2.55555556 0 0 0 Z " fill="#A19F95" transform="translate(294,304)"/>
<path d="M0 0 C0.99 0.33 1.98 0.66 3 1 C3 2.32 3 3.64 3 5 C-4.425 4.01 -4.425 4.01 -12 3 C-12 2.67 -12 2.34 -12 2 C-11.21753906 1.93941406 -10.43507813 1.87882812 -9.62890625 1.81640625 C-8.61699219 1.73261719 -7.60507812 1.64882813 -6.5625 1.5625 C-5.55316406 1.48128906 -4.54382813 1.40007812 -3.50390625 1.31640625 C-1.06359221 1.26788532 -1.06359221 1.26788532 0 0 Z " fill="#E4B03C" transform="translate(324,285)"/>
<path d="M0 0 C0.66 0 1.32 0 2 0 C2.4125 0.845625 2.825 1.69125 3.25 2.5625 C5.05963279 6.11713583 6.99919438 9.55033514 9 13 C7.68 12.34 6.36 11.68 5 11 C5 10.34 5 9.68 5 9 C3.35 8.67 1.7 8.34 0 8 C0 5.36 0 2.72 0 0 Z " fill="#C5AE79" transform="translate(335,247)"/>
<path d="M0 0 C1 4 1 4 0.375 6 C-1.38349554 8.5578117 -3.51402387 10.16822811 -6 12 C-6.66 11.67 -7.32 11.34 -8 11 C-5.36 7.37 -2.72 3.74 0 0 Z " fill="#A4A295" transform="translate(294,316)"/>
<path d="M0 0 C0 3.72295567 -1.3746498 4.80112485 -3.75390625 7.50390625 C-5.17673476 9.21219252 -6.1349787 10.95540419 -7 13 C-7.66 13 -8.32 13 -9 13 C-7.63550416 7.79010681 -5.60150156 4.87161418 -2 1 C-1.34 0.67 -0.68 0.34 0 0 Z " fill="#666359" transform="translate(284,302)"/>
<path d="M0 0 C2.31 0 4.62 0 7 0 C6.67 1.32 6.34 2.64 6 4 C1.71 4 -2.58 4 -7 4 C-6.01 3.01 -5.02 2.02 -4 1 C-2.68 1.66 -1.36 2.32 0 3 C0 2.01 0 1.02 0 0 Z " fill="#DFB762" transform="translate(306,300)"/>
<path d="M0 0 C0.66 0.33 1.32 0.66 2 1 C2.625 3.5625 2.625 3.5625 3 6 C2.38125 6.28875 1.7625 6.5775 1.125 6.875 C-1.13325765 7.93720042 -1.13325765 7.93720042 -3 10 C-3.33 7.03 -3.66 4.06 -4 1 C-3.67 2.32 -3.34 3.64 -3 5 C-2.34 5 -1.68 5 -1 5 C-0.67 3.35 -0.34 1.7 0 0 Z " fill="#CB9621" transform="translate(336,256)"/>
<path d="M0 0 C0.66 0.66 1.32 1.32 2 2 C1.67 2.99 1.34 3.98 1 5 C1.66 5 2.32 5 3 5 C2.34 6.32 1.68 7.64 1 9 C0.01 9 -0.98 9 -2 9 C-2.6875 6.75 -2.6875 6.75 -3 4 C-1.5625 1.6875 -1.5625 1.6875 0 0 Z " fill="#AD852F" transform="translate(298,295)"/>
<path d="M0 0 C1.65 0 3.3 0 5 0 C5 1.98 5 3.96 5 6 C3.35 5.67 1.7 5.34 0 5 C-0.33 4.01 -0.66 3.02 -1 2 C-0.67 1.34 -0.34 0.68 0 0 Z " fill="#D0AA54" transform="translate(315,299)"/>
<path d="M0 0 C0.66 0 1.32 0 2 0 C2 0.99 2 1.98 2 3 C3.32 2.67 4.64 2.34 6 2 C2.7129243 5.81300782 -0.39727838 7.22972246 -5 9 C-5 8.01 -5 7.02 -5 6 C-3.68 5.67 -2.36 5.34 -1 5 C-0.67 3.35 -0.34 1.7 0 0 Z " fill="#C79534" transform="translate(318,308)"/>
<path d="M0 0 C0.66 0.99 1.32 1.98 2 3 C1.195625 3.12375 0.39125 3.2475 -0.4375 3.375 C-1.7059375 3.684375 -1.7059375 3.684375 -3 4 C-3.33 4.66 -3.66 5.32 -4 6 C-4.66 6 -5.32 6 -6 6 C-6 6.66 -6 7.32 -6 8 C-6.99 7.67 -7.98 7.34 -9 7 C-8.07347299 5.82460004 -7.13336613 4.65989423 -6.1875 3.5 C-5.66542969 2.8503125 -5.14335937 2.200625 -4.60546875 1.53125 C-3 0 -3 0 0 0 Z " fill="#8D8A7E" transform="translate(275,328)"/>
<path d="M0 0 C3.27742098 3.10026309 5.93104837 5.97098894 8 10 C8 10.66 8 11.32 8 12 C7.34 12 6.68 12 6 12 C2.66181162 8.24453807 0 5.11986304 0 0 Z " fill="#6E623D" transform="translate(286,287)"/>
<path d="M0 0 C0.66 0.33 1.32 0.66 2 1 C-4.20440882 7.37675351 -4.20440882 7.37675351 -7 9 C-8.32 8.67 -9.64 8.34 -11 8 C-7.37 5.36 -3.74 2.72 0 0 Z " fill="#77683E" transform="translate(342,297)"/>
<path d="M0 0 C1.32 0.66 2.64 1.32 4 2 C2.68 4.31 1.36 6.62 0 9 C-1.32 8.34 -2.64 7.68 -4 7 C-3.01 6.67 -2.02 6.34 -1 6 C-1.020625 5.195625 -1.04125 4.39125 -1.0625 3.5625 C-1 1 -1 1 0 0 Z " fill="#CB9604" transform="translate(328,284)"/>
<path d="M0 0 C0.66 0.33 1.32 0.66 2 1 C2 1.66 2 2.32 2 3 C0.57421875 4.2890625 0.57421875 4.2890625 -1.3125 5.625 C-1.92738281 6.07101562 -2.54226563 6.51703125 -3.17578125 6.9765625 C-5 8 -5 8 -8 8 C-6.88333826 4.65001479 -6.25305075 4.20659778 -3.4375 2.3125 C-2.79683594 1.87550781 -2.15617187 1.43851562 -1.49609375 0.98828125 C-1.00238281 0.66214844 -0.50867188 0.33601563 0 0 Z " fill="#796D4A" transform="translate(291,278)"/>
<path d="M0 0 C3.39417765 3.12621626 5.6062718 5.56541027 7 10 C4.53199953 8.84826645 2.95216435 7.95216435 1 6 C0.34437636 3.90200436 0 2.19959601 0 0 Z " fill="#DBC27A" transform="translate(348,267)"/>
<path d="M0 0 C0.28875 0.61875 0.5775 1.2375 0.875 1.875 C1.93720042 4.13325765 1.93720042 4.13325765 4 6 C3.625 8.625 3.625 8.625 3 11 C1.35 9.35 -0.3 7.7 -2 6 C-1.34 4.02 -0.68 2.04 0 0 Z " fill="#FAFAE3" transform="translate(239,326)"/>
<path d="M0 0 C0 0.99 0 1.98 0 3 C-0.87398438 2.66162109 -0.87398438 2.66162109 -1.765625 2.31640625 C-4.05727616 1.74590669 -4.05727616 1.74590669 -5.921875 3.21484375 C-6.82679688 4.06755859 -6.82679688 4.06755859 -7.75 4.9375 C-8.36359375 5.50339844 -8.9771875 6.06929687 -9.609375 6.65234375 C-10.06828125 7.09707031 -10.5271875 7.54179687 -11 8 C-8.71283018 1.49036283 -7.11151757 -0.47410117 0 0 Z " fill="#78786C" transform="translate(273,243)"/>
<path d="M0 0 C1.32 0.66 2.64 1.32 4 2 C3.67 3.32 3.34 4.64 3 6 C2.67 5.67 2.34 5.34 2 5 C1.67 5.66 1.34 6.32 1 7 C0.01 6.67 -0.98 6.34 -2 6 C-2 4.66666667 -2 3.33333333 -2 2 C-1.34 2 -0.68 2 0 2 C0 1.34 0 0.68 0 0 Z " fill="#A09F94" transform="translate(285,299)"/>
<path d="M0 0 C1.32 0.33 2.64 0.66 4 1 C1.36 2.98 -1.28 4.96 -4 7 C-4.66 6.67 -5.32 6.34 -6 6 C-4 4 -2 2 0 0 Z " fill="#79673E" transform="translate(326,253)"/>
<path d="M0 0 C2.31 0.33 4.62 0.66 7 1 C7.33 3.31 7.66 5.62 8 8 C4.125 4.25 4.125 4.25 3 2 C2.01 2 1.02 2 0 2 C0 1.34 0 0.68 0 0 Z " fill="#B9963F" transform="translate(297,304)"/>
<path d="M0 0 C1.32 0.33 2.64 0.66 4 1 C4.33 2.65 4.66 4.3 5 6 C4.34 5.67 3.68 5.34 3 5 C3 4.01 3 3.02 3 2 C2.01 2.495 2.01 2.495 1 3 C0.34227572 6.02934491 0.34227572 6.02934491 0 9 C-1.125 7.3125 -1.125 7.3125 -2 5 C-1.125 2.25 -1.125 2.25 0 0 Z " fill="#878876" transform="translate(332,148)"/>
<path d="M0 0 C0.99 0.66 1.98 1.32 3 2 C-0.465 4.97 -0.465 4.97 -4 8 C-4 5 -4 5 -3 3 C-2.34 3 -1.68 3 -1 3 C-0.67 2.01 -0.34 1.02 0 0 Z " fill="#ACAB9A" transform="translate(272,331)"/>
<path d="M0 0 C0.33 0 0.66 0 1 0 C0.39174965 4.34464536 -0.26167392 8.67551867 -1 13 C-1.66 13 -2.32 13 -3 13 C-3 10.03 -3 7.06 -3 4 C-2.01 3.67 -1.02 3.34 0 3 C0 2.01 0 1.02 0 0 Z " fill="#EFB432" transform="translate(328,273)"/>
<path d="M0 0 C0.66 0 1.32 0 2 0 C0.71480435 2.86697492 -0.57129254 4.97607712 -3 7 C-3.66 7 -4.32 7 -5 7 C-5 5.68 -5 4.36 -5 3 C-3.35 2.67 -1.7 2.34 0 2 C0 1.34 0 0.68 0 0 Z " fill="#817F76" transform="translate(292,310)"/>
<path d="M0 0 C0.99 0 1.98 0 3 0 C2.67 1.65 2.34 3.3 2 5 C2.66 5.33 3.32 5.66 4 6 C2.02 6.99 2.02 6.99 0 8 C0 5.36 0 2.72 0 0 Z " fill="#CA980E" transform="translate(314,307)"/>
<path d="M0 0 C0.33 1.32 0.66 2.64 1 4 C-1.97 6.475 -1.97 6.475 -5 9 C-5 7.35 -5 5.7 -5 4 C-3.68 4 -2.36 4 -1 4 C-0.67 2.68 -0.34 1.36 0 0 Z " fill="#85817A" transform="translate(287,302)"/>
<path d="M0 0 C0 2.97 0 5.94 0 9 C-0.33 7.68 -0.66 6.36 -1 5 C-2.32 5 -3.64 5 -5 5 C-5 3 -5 3 -3.625 1.375 C-2 0 -2 0 0 0 Z " fill="#EBB228" transform="translate(332,255)"/>
<path d="M0 0 C3.3 0 6.6 0 10 0 C10.33 1.32 10.66 2.64 11 4 C7.37 3.01 3.74 2.02 0 1 C0 0.67 0 0.34 0 0 Z " fill="#BD9241" transform="translate(304,289)"/>
<path d="M0 0 C1.32 1.32 2.64 2.64 4 4 C3.67 4.99 3.34 5.98 3 7 C1.68 6.67 0.36 6.34 -1 6 C-0.67 4.02 -0.34 2.04 0 0 Z " fill="#D4BB6D" transform="translate(344,260)"/>
<path d="M0 0 C0.66 1.32 1.32 2.64 2 4 C-0.31 4.33 -2.62 4.66 -5 5 C-3.35 3.35 -1.7 1.7 0 0 Z " fill="#DFB238" transform="translate(298,276)"/>
<path d="M0 0 C2.375 0.25 2.375 0.25 5 1 C6.3125 3.0625 6.3125 3.0625 7 5 C5.68 5.33 4.36 5.66 3 6 C2 4 1 2 0 0 Z " fill="#C89931" transform="translate(335,255)"/>
<path d="M0 0 C0.66 0.33 1.32 0.66 2 1 C-1.625 5.875 -1.625 5.875 -5 7 C-3.70700306 4.11562221 -2.34058637 2.12780579 0 0 Z " fill="#8A8971" transform="translate(257,347)"/>
<path d="M0 0 C0.99 0.33 1.98 0.66 3 1 C3 1.66 3 2.32 3 3 C1.1875 4.6875 1.1875 4.6875 -1 6 C-1.99 5.67 -2.98 5.34 -4 5 C-2.68 3.35 -1.36 1.7 0 0 Z " fill="#A7A68D" transform="translate(260,330)"/>
<path d="M0 0 C0.99 0 1.98 0 3 0 C3 2.31 3 4.62 3 7 C1.5 5.75 1.5 5.75 0 4 C0 2.68 0 1.36 0 0 Z " fill="#D2960F" transform="translate(306,308)"/>
<path d="M0 0 C2.125 0.9375 2.125 0.9375 4 2 C4 2.66 4 3.32 4 4 C2.02 4 0.04 4 -2 4 C-2 3.01 -2 2.02 -2 1 C-1.34 0.67 -0.68 0.34 0 0 Z " fill="#CD951F" transform="translate(331,275)"/>
<path d="M0 0 C2.475 0.495 2.475 0.495 5 1 C4.34 2.32 3.68 3.64 3 5 C2.01 4.67 1.02 4.34 0 4 C0 2.68 0 1.36 0 0 Z " fill="#F0B704" transform="translate(326,259)"/>
<path d="M0 0 C0.99 0 1.98 0 3 0 C2.34 1.32 1.68 2.64 1 4 C0.67 2.68 0.34 1.36 0 0 Z " fill="#FFFFFF" transform="translate(306,231)"/>
<path d="M0 0 C0.33 0 0.66 0 1 0 C1 1.98 1 3.96 1 6 C0.67 6 0.34 6 0 6 C0 4.02 0 2.04 0 0 Z " fill="#FFFFE2" transform="translate(254,343)"/>
<path d="M0 0 C1 4 1 4 1 4 Z " fill="#FFFFFF" transform="translate(252,333)"/>
<path d="M0 0 C0.99 0.495 0.99 0.495 2 1 C1.67 1.66 1.34 2.32 1 3 C0.67 2.01 0.34 1.02 0 0 Z " fill="#FFFFFF" transform="translate(279,252)"/>
<path d="M0 0 C1 4 1 4 1 4 Z " fill="#FFFFEF" transform="translate(322,213)"/>
<path d="" fill="#FFFFFF" transform="translate(0,0)"/>
<path d="" fill="#FFFFFF" transform="translate(0,0)"/>
<path d="" fill="#FFFFFF" transform="translate(0,0)"/>
<path d="M0 0 C0.66 0.66 1.32 1.32 2 2 C1.34 2 0.68 2 0 2 C0 1.34 0 0.68 0 0 Z " fill="#FFFFFF" transform="translate(275,262)"/>
<path d="M0 0 C0.99 0.495 0.99 0.495 2 1 C1.01 1.495 1.01 1.495 0 2 C0 1.34 0 0.68 0 0 Z " fill="#FFFFE2" transform="translate(288,254)"/>
<path d="M0 0 C0.99 0.495 0.99 0.495 2 1 C1.01 1.495 1.01 1.495 0 2 C0 1.34 0 0.68 0 0 Z " fill="#FFFFFF" transform="translate(302,242)"/>
<path d="M0 0 C0.33 0.66 0.66 1.32 1 2 C0.34 1.67 -0.32 1.34 -1 1 C-0.67 0.67 -0.34 0.34 0 0 Z " fill="#FFFFE2" transform="translate(342,215)"/>
<path d="" fill="#FFFFE2" transform="translate(0,0)"/>
<path d="" fill="#FFFFFF" transform="translate(0,0)"/>
<path d="" fill="#FFFFFF" transform="translate(0,0)"/>
<path d="" fill="#FFFFFF" transform="translate(0,0)"/>
<path d="" fill="#FFFFFF" transform="translate(0,0)"/>
<path d="" fill="#FFFFFF" transform="translate(0,0)"/>
<path d="" fill="#FFFFFF" transform="translate(0,0)"/>
<path d="" fill="#FFFFFF" transform="translate(0,0)"/>
<path d="" fill="#FFFFFF" transform="translate(0,0)"/>
<path d="" fill="#FFFFFF" transform="translate(0,0)"/>
<path d="" fill="#FFFFFF" transform="translate(0,0)"/>
<path d="" fill="#FFFFFF" transform="translate(0,0)"/>
<path d="" fill="#FFFFFF" transform="translate(0,0)"/>
<path d="" fill="#FFFFFF" transform="translate(0,0)"/>
<path d="" fill="#FFFFFF" transform="translate(0,0)"/>
<path d="" fill="#FFFFFF" transform="translate(0,0)"/>
<path d="" fill="#FFFFFF" transform="translate(0,0)"/>
<path d="" fill="#FFFFFF" transform="translate(0,0)"/>
<path d="" fill="#FFFFFF" transform="translate(0,0)"/>
<path d="" fill="#FFFFBF" transform="translate(0,0)"/>
<path d="" fill="#FFFFFF" transform="translate(0,0)"/>
<path d="" fill="#FFFFFF" transform="translate(0,0)"/>
<path d="" fill="#FFFFFF" transform="translate(0,0)"/>
<path d="" fill="#FFFFFF" transform="translate(0,0)"/>
<path d="" fill="#FFFFFF" transform="translate(0,0)"/>
<path d="" fill="#FFFFFF" transform="translate(0,0)"/>
<path d="" fill="#FFFFFF" transform="translate(0,0)"/>
<path d="" fill="#FFFFFF" transform="translate(0,0)"/>
<path d="" fill="#FFFFFF" transform="translate(0,0)"/>
<path d="" fill="#FFFFFF" transform="translate(0,0)"/>
</svg>
